<?xml version="1.0" encoding="utf-8"?>
<!-- Generator: Adobe Illustrator 16.0.0, SVG Export Plug-In . SVG Version: 6.00 Build 0)  -->
<!DOCTYPE svg PUBLIC "-//W3C//DTD SVG 1.1//EN" "http://www.w3.org/Graphics/SVG/1.1/DTD/svg11.dtd">
<svg version="1.1" id="Layer_1" xmlns="http://www.w3.org/2000/svg" xmlns:xlink="http://www.w3.org/1999/xlink" x="0px" y="0px"
	 width="1032px" height="310px" viewBox="0 0 1032 310" enable-background="new 0 0 1032 310" xml:space="preserve">
<g>
	<defs>
		<rect id="SVGID_1_" x="-41" y="-92.05" width="1110.061" height="498.05"/>
	</defs>
	<clipPath id="SVGID_2_">
		<use xlink:href="#SVGID_1_"  overflow="visible"/>
	</clipPath>
	<path clip-path="url(#SVGID_2_)" fill="#111111" d="M196.112,39.611c-5.622-7.854-18.615,3.237-13.5,10.382
		c14.012,19.575,6.067,48.006-4.677,67.306c-8.286,14.885-22.512,30.768-37.981,38.366c-5.339,2.623-9.368,3.541-12.379-2.425
		c-3.383-6.702-2.109-15.868-0.944-22.967C130.166,108.73,138.577,88,146.158,67.64c3.017-8.101-8.524-11.066-12.646-4.929
		c-13.551,20.173-29.574,38.961-45.823,56.982c-9.343,10.362-18.966,20.541-29.372,29.849c-2.285,2.043-4.629,4.121-7.041,6.14
		c7.981-17.258,16.066-34.471,23.594-51.928c7.916-18.357,15.693-37.404,17.92-57.433c1.671-15.035-2.127-32.723-20.075-33.922
		C53.693,11.129,35.62,24.514,23.907,38.17C9.066,55.471-1.701,80.235,7.788,102.519c3.681,8.646,16.92-2.35,13.5-10.382
		c-8.098-19.02,7.849-42.324,22.051-53.759c9.485-7.637,32.673-18.618,34.492,1.156c1.752,19.04-7.949,40.102-15.247,57.191
		c-10.789,25.266-22.852,49.981-34.102,75.043c-2.816,6.273,1.441,12.37,8.336,9.683c10.005-3.901,18.802-11.126,26.799-18.122
		c11.306-9.889,21.823-20.711,31.945-31.795c7.371-8.071,14.676-16.319,21.758-24.763c-2.005,6.739-3.744,13.545-5.04,20.447
		c-2.591,13.8-5.255,34.907,8.601,44c12.685,8.325,29.983-4.629,39.387-12.551c15.076-12.701,28.137-28.487,35.765-46.769
		C205.308,89.673,211.229,60.729,196.112,39.611"/>
	<path clip-path="url(#SVGID_2_)" fill="#111111" d="M232.264,85.278c1.86,0.614,3.941,0.507,5.706-0.386
		c1.938-0.98,3.949-2.592,4.804-4.643c0.326-0.784,0.653-1.568,0.98-2.352c0.801-1.922,1.419-3.882,0.884-5.986
		c-0.434-1.708-1.775-3.509-3.514-4.083c-1.86-0.614-3.94-0.507-5.705,0.386c-1.938,0.98-3.95,2.593-4.805,4.643
		c-0.326,0.784-0.653,1.568-0.98,2.352c-0.8,1.922-1.418,3.882-0.883,5.986C229.185,82.903,230.526,84.704,232.264,85.278"/>
	<path clip-path="url(#SVGID_2_)" fill="#111111" d="M406.672,96.966c-13.972-6.52-30.627,5.907-39.863,15.124
		c-4.134,4.125-8.509,9.326-12.135,15.084c-0.428,0.349-0.85,0.741-1.26,1.194c-4.869,5.383-20.984,32.855-29.693,25.642
		c-6.218-5.149-2.097-18.737-0.845-25.15c1.513-7.75,3.765-17.553-1.236-24.551c-8.132-11.38-23.983-3.778-32.581,2.471
		c-8.018,5.829-15.079,13.123-21.58,20.775c2.939-9.257,5.878-18.514,8.817-27.772c3.401-10.713-11.903-9.872-14.723-0.99
		c-3.036,9.565-6.072,19.13-9.109,28.694c-5.01,5.514-38.808,36.285-43.457,26.718c-1.642-3.379,2.008-11.063,3.248-14.13
		c2.033-5.028,4.603-9.87,7.167-14.641c3.351-6.234,6.888-12.38,10.612-18.399c2.066-3.339,1.213-8.507-2.629-10.069
		c-4.267-1.735-8.428,1.663-10.51,5.029c-5.546,8.963-10.825,18.181-15.363,27.696c-4.72,9.897-13.284,27.969-4.296,37.829
		c8.449,9.268,23.415,1.69,31.975-3.375c5.107-3.021,10.063-6.397,14.81-10.06c-1.118,3.52-2.236,7.041-3.353,10.562
		c-1.138,3.583,0.728,7.307,4.331,8.24c4.075,1.057,7.577-2.086,9.599-5.226c0.306-0.475,0.615-0.946,0.928-1.416
		c0.127-0.19,0.211-0.316,0.268-0.402c0.614-0.909,1.233-1.813,1.856-2.716c3.143-4.549,6.389-9.027,9.741-13.424
		c8.331-10.927,17.258-22.182,28.355-30.441c2.654-1.975,7.282-5.663,10.796-4.812c6.378,1.544,0.852,16.821,0.11,21.19
		c-2.386,14.029-0.807,38.3,19.658,35.49c8.464-1.162,15.165-6.561,21.042-13.128c0.599,2.363,1.544,4.685,2.889,6.938
		c13.605,22.803,42.874,3.021,57.158-7.879c8.03-6.127,1.714-18.9-7.245-12.063c-7.898,6.027-33.675,25.688-37.82,5.792
		c-0.049-0.237-0.078-0.477-0.117-0.715c11.958-2.603,23.698-7.639,33.625-14.07C406.215,129.284,426.027,105.998,406.672,96.966
		 M366.409,133.351c5.531-9.303,15.213-17.537,22.964-20.63c2.012-0.803,7.203-2.703,9.016-0.834
		c3.244,3.343-6.445,9.871-8.724,11.374C382.716,127.843,374.512,131.128,366.409,133.351"/>
	<path clip-path="url(#SVGID_2_)" fill="#111111" d="M553.894,101.593c-5.934,0.597-11.826,4.433-17.146,6.861
		c-3.979,1.815-13.104,7.228-17.084,3.435c-6.558-6.25-17.712,6.898-11.086,13.212c7.885,7.515,20.417,2.59,28.915-1.07
		c3.475-1.497,6.842-3.287,10.307-4.822c-0.068,1.902-0.218,3.791-0.907,5.552c-8.255,21.089-28.377,43.432-55.96,42.447
		c-12.506-0.446-21.652-10.78-24.545-22.853c-3.742-15.619,2.937-31.406,10.315-44.883c13.392-24.462,34.993-45.488,60.541-56.982
		c7.852-3.532,22.412-9.725,29.723-2.355c5.118,5.161,3.099,16.618-1.132,19.933c-7.936,6.217-1.632,19.02,7.245,12.064
		c9.535-7.47,14.091-21.519,11.518-33.282c-3.283-15.005-17.647-19.385-31.408-17.054c-30.486,5.164-59.122,29.404-77.094,53.307
		c-19.455,25.877-40.549,75.451-7.907,101.156c23.065,18.164,67.403-3.417,83.385-29.625
		C556.39,138.733,574.103,99.558,553.894,101.593 M552.177,117.481C552.308,117.445,552.287,117.459,552.177,117.481"/>
	<path clip-path="url(#SVGID_2_)" fill="#111111" d="M914.428,110.69c-0.045,1.657-0.777,3.433-1.369,4.894
		c-4.184,10.316,9.302,14.505,13.139,5.04c3.021-7.454,7.144-20.472-2.784-24.903c-9.543-4.26-21.448,4.517-28.071,10.452
		c-2.304,2.062-4.486,4.245-6.603,6.493c1.117-2.864,2.204-5.643,3.226-8.244c4.059-10.344-9.406-14.552-13.141-5.04
		c-3,7.645-5.955,15.309-8.92,22.969c-13.504,13.708-28.51,28.665-46.277,36.269c-8.272,3.54-19.549,3.333-20.854-6.876
		c17.458-3.526,35.829-12.062,46.113-25.261c5.722-7.344,9.778-19.305,1.179-26.239c-5.987-4.827-14.715-3.572-21.386-1.156
		c-12.399,4.49-25.881,15.898-33.986,29.396c-11.998,14.557-39.422,44.419-44.156,19.791c-1.568-8.163,0.548-17.117,3.153-25.323
		c0.332-0.192,0.667-0.4,1.008-0.644c20.889-14.959,39.585-34.527,54.711-55.169c9.667-13.193,21.488-28.783,24.203-45.354
		c1.579-9.635-3.073-18.721-13.717-17.957c-9.918,0.711-18.578,8.107-25.334,14.769c-11.68,11.517-20.677,25.776-28.286,40.213
		c-9.484,17.993-18.284,36.654-24.886,55.914c-0.184,0.534-0.366,1.079-0.549,1.622c-6.668,8.275-13.866,16.181-21.743,23.29
		c-7,6.319-17.143,16.278-27.161,17.12c-12.188,1.023-10.598-15.121-6.333-30.706c1.39-1.852,2.758-3.698,4.104-5.532
		c22.299-16.478,41.856-37.949,57.432-60.66c8.148-11.883,22.614-30.655,19.122-46.292c-2.293-10.268-12.829-11.279-21.099-7.933
		c-11.608,4.697-21.032,15.163-28.46,24.866c-12.937,16.9-22.379,36.278-31.146,55.573c-5.205,11.454-10.359,23.322-13.873,35.556
		c-7.624,9.889-15.998,19.457-26.039,26.537c-2.993,2.11-6.49,4.137-9.347,4.567c-1.658,0.249-2.426,0.137-3.452-0.651
		c-0.883-0.676-1.486-1.679-1.86-3.483c-0.338-1.633-0.365,0.235-0.212-2.192c0.121-1.915,0.453-3.582,0.993-5.466
		c3.143-10.961,9.954-21.541,16.669-30.683c6.208-8.671-4.095-17.684-10.57-8.869c-0.959,1.306-1.924,2.641-2.886,3.994
		c-0.073,0.099-0.144,0.195-0.217,0.297c-4.44-6.111-12.716-9.363-20.655-8.209c-16.036,2.33-31.071,15.278-39.936,28.185
		c-7.47,10.875-16.968,32.99-3.295,43.133c14.827,11,34.81-7.209,44.686-17.675c0.212,5.367,1.928,10.64,6.196,14.181
		c7.673,6.363,18.462,2.72,26.031-1.763c7.222-4.276,13.727-9.785,19.721-15.903c0.136,9.076,2.632,18.367,10.937,22.92
		c12.596,6.903,28.223-3.29,38.103-10.711c6.42-4.822,12.469-10.221,18.2-15.96c-0.188,4.351,0.133,8.654,1.211,12.781
		c3.728,14.261,17.332,20.118,30.722,14.883c7.737-3.025,14.688-8.083,21.009-14.039c0.096,0.598,0.195,1.195,0.327,1.789
		c3.529,15.891,19.11,20.116,33.018,15.882c13.689-4.168,26.038-12.741,37.31-22.571c-0.494,1.335-1.002,2.665-1.488,4.002
		c-1.352,3.726-4.573,9.913-1.991,13.73c1.766,2.61,5.695,3.681,8.516,1.972c2.806-1.7,4.57-4.023,6.109-6.615
		c-0.41-0.156-0.698-0.749-0.182-1.57c0.253-0.403,0.413-0.967,0.557-1.515c0.272,0.624,0.429,1.144,0.494,1.565
		c0.508-0.922,1.008-1.864,1.53-2.82c3.991-7.307,8.128-14.562,12.822-21.446c5.889-8.635,12.529-17.601,20.763-24.131
		C907.714,113.996,911.279,111.007,914.428,110.69 M580.284,153.936c-3.529-5.195,1.864-15.228,4.634-19.601
		c4.129-6.516,10.008-12.154,16.52-16.267c5.971-3.771,22.011-8.614,21.25,2.094c-0.035,0.49-0.026,0.937,0.003,1.363
		C607.749,140.307,586.739,163.434,580.284,153.936 M718.942,51.569c6.194-10.119,13.57-20.502,23.125-27.741
		c2.298-1.742,4.9-3.366,7.409-4.065c1.699-0.474,1.839-0.296,1.876,0.733c0.196,5.417-3.387,11.283-5.846,15.867
		c-4.104,7.653-8.959,14.909-14.09,21.906c-10.349,14.116-22.32,27.627-35.627,39.377C702.571,81.922,710.004,66.172,718.942,51.569
		 M775.231,72.072c6.476-12.973,13.477-25.718,22.805-36.891c4.667-5.591,10.797-12.99,18.077-15.222
		c1.131-0.347,2.561-0.637,2.848-0.045c0.142,0.291-1.281,6.215-1.947,7.948c-5.515,14.354-15.567,27.622-25.15,39.473
		c-8.655,10.703-18.249,21.005-28.672,30.256C766.927,88.954,771.04,80.469,775.231,72.072 M824.459,117.278
		c2.018-1.347,13.765-7.937,15.34-2.899c0.744,2.382-4.195,6.321-5.701,7.606c-5.499,4.689-12.534,7.747-19.225,10.319
		c-2.449,0.942-4.941,1.766-7.464,2.489c0.941-1.225,1.873-2.441,2.783-3.631c0.516-0.676,0.915-1.353,1.229-2.025
		C815.312,124.386,819.998,120.257,824.459,117.278"/>
	<path clip-path="url(#SVGID_2_)" fill="#111111" d="M870.358,164.17c-0.284,0.515-0.574,1.021-0.869,1.52
		C869.952,165.867,870.558,165.468,870.358,164.17"/>
	<path clip-path="url(#SVGID_2_)" fill="#111111" d="M1010.175,187.33c-5.335-1.586-10.932-1.979-16.535-1.54
		c1.394-12.438,2.286-24.94,2.991-37.429c0.798-14.154,0.481-28.719,2.518-42.769c0.914-6.315-7.448-7.969-11.279-4.497
		c-8.321,7.541-14.536,17.505-21.242,26.423c-5.06,6.73-10.05,13.65-15.642,19.95c-2.504,2.82-8.002,9.377-12.334,9.39
		c-0.1,0.001-0.161,0.006-0.23,0.009c-0.856-1.54,0.196-5.167,0.489-6.566c1.604-7.663,4.482-15.388,7.37-22.651
		c2.722-6.845,5.749-13.707,9.446-20.093c5.647-9.755-8.107-13.731-13.14-5.04c-5.666,9.787-9.915,20.551-13.643,31.192
		c-3.279,9.361-12.932,32.979,1.62,38.378c12.528,4.648,26.399-10.125,33.284-18.452c6.257-7.565,12.072-15.51,17.939-23.379
		c-0.862,15.195-0.872,30.539-2.185,45.597c-0.382,4.369-0.823,8.724-1.331,13.063c-4.671,1.495-9.167,3.397-13.323,5.494
		c-29.189,14.731-55.829,45.996-63.322,78.259c-2.303,9.916-3.075,22.942,5.335,30.395c9.869,8.744,24.294,5.277,34.258-1.241
		c13.636-8.92,23.338-23.659,30.766-37.854c8.977-17.158,15.013-35.704,18.345-54.754c0.435-2.484,0.84-4.975,1.22-7.468
		c7.674-0.522,21.101,0.813,18.712,10.983c-2.568,10.944,12.566,10.176,14.723,0.989
		C1027.845,201.535,1022.367,190.953,1010.175,187.33 M956.538,263.181c-5.749,10.197-13.779,23.053-25.083,27.83
		c-6.295,2.661-13.954,1.599-15.708-5.81c-2.19-9.25,2.882-20.313,6.936-28.323c6.114-12.083,14.421-23.254,24.222-32.607
		c8.258-7.881,18.164-14.837,29.025-18.917C972.486,225.478,966.789,244.997,956.538,263.181"/>
</g>
</svg>
