<?xml version="1.0" encoding="UTF-8"?>
<svg width="127px" height="140px" viewBox="0 0 127 140" version="1.1" xmlns="http://www.w3.org/2000/svg" xmlns:xlink="http://www.w3.org/1999/xlink">
    <!-- Generator: Sketch 54.1 (76490) - https://sketchapp.com -->
    <title>Group 27</title>
    <desc>Created with Sketch.</desc>
    <defs>
        <polygon id="path-1" points="0.4599 0.14344 26.7588 0.14344 26.7588 43.168928 0.4599 43.168928"></polygon>
        <polygon id="path-3" points="0.612434783 0.754966667 19.8052174 0.754966667 19.8052174 28.4156939 0.612434783 28.4156939"></polygon>
    </defs>
    <g id="Symbols-&amp;-Palette" stroke="none" stroke-width="1" fill="none" fill-rule="evenodd">
        <g id="footer_desktop" transform="translate(-210.000000, -73.000000)">
            <g id="Group-27" transform="translate(210.000000, 73.000000)">
                <path d="M31.233976,15.4355789 L28.409458,15.4355789 C28.409458,12.7301926 27.7267336,10.4970772 26.3604017,8.73181044 C24.8465731,6.74102116 22.7789694,5.74606872 20.1575906,5.74606872 C16.0965731,5.74606872 13.0141567,7.5750124 10.909458,11.2346686 C9.21103765,14.2221791 8.3622691,17.9366682 8.3622691,22.3807891 C8.3622691,26.675446 9.19249016,30.5774283 10.8538155,34.0867361 C12.9585142,38.5299726 15.8943171,40.7515908 19.659458,40.7515908 C20.9145049,40.7515908 22.2251943,40.4526629 23.5915262,39.8556915 L23.5915262,29.9415432 C23.5915262,27.3290192 22.3541435,26.0218728 19.8811446,26.0218728 L19.9367871,23.7807977 C21.1547391,23.9125736 22.5581659,24.0098578 24.1453013,24.0753036 C25.7324367,24.1407494 27.467952,24.1725878 29.3518472,24.1725878 C30.016024,24.1725878 31.0953114,24.1080265 32.5914757,23.9762506 C34.0858736,23.8462434 34.8895983,23.7807977 35,23.7807977 L35,25.8653336 C33.3015797,26.204944 32.2116938,26.8249099 31.7321086,27.7261157 C31.4000202,28.3655385 31.233976,29.6629565 31.233976,31.6166009 L31.233976,36.5214953 C31.233976,37.0105697 31.2896185,37.7614271 31.4000202,38.7767208 C31.5104219,39.7911301 31.5660644,40.56056 31.5660644,41.0867793 C27.6525437,42.2073168 25.3270415,42.8617744 24.5886747,43.0483833 C21.9302009,43.6824996 19.5296255,44 17.388715,44 C11.5550873,44 7.12488644,42.0596216 4.09722923,38.1753273 C1.36544867,34.6660195 0,29.8858258 0,23.8356306 C0,17.52719 1.72491673,12.4763692 5.17828303,8.68493712 C8.62988291,4.89704265 13.4380993,3 19.6046987,3 C20.8959574,3 22.3179318,3.15653918 23.8688554,3.46519554 C27.7452811,4.23816303 30.1078783,4.62464678 30.95753,4.62464678 L31.233976,15.4355789 Z" id="Fill-1" fill="#000000"></path>
                <path d="M48.2946863,41.0599087 C50.3236187,41.0599087 51.5887376,39.1058095 52.0866558,35.1958602 C52.2644838,33.8309674 52.3542446,32.023951 52.3542446,29.7748108 L52.3542446,27.8382215 C52.3542446,25.0725408 52.157787,22.8776812 51.7674123,21.2562692 C51.0899725,18.3802764 49.8070708,16.9400913 47.9204008,16.9400913 C46.0692965,16.9400913 44.8041775,18.3049841 44.1275845,21.0338941 C43.736363,22.6202864 43.5399054,24.7774998 43.5399054,27.5072853 L43.5399054,29.6075918 C43.5399054,32.8162717 43.7710818,35.270277 44.2342813,36.9661059 C44.9820055,39.6950159 46.3351916,41.0599087 48.2946863,41.0599087 M48.0533484,15 C51.7343871,15 54.6719356,16.3692702 56.8676875,19.1025577 C58.955049,21.6913889 60,24.9438434 60,28.8607967 C60,33.0018761 59.0083974,36.3453818 57.0268859,38.8974423 C54.903112,41.6324808 51.8758027,43 47.9474984,43 C44.1944817,43 41.2654012,41.7068976 39.1594101,39.1180664 C37.053419,36.5318617 36,33.241761 36,29.2495154 C36,25.0725408 36.9907558,21.7088988 38.9739609,19.1585892 C41.1324536,16.3859046 44.1589161,15 48.0533484,15" id="Fill-3" fill="#000000"></path>
                <path d="M74.2946863,41.0599087 C76.3236187,41.0599087 77.5887376,39.1058095 78.0866558,35.1958602 C78.2644838,33.8309674 78.3533978,32.023951 78.3533978,29.7748108 L78.3533978,27.8382215 C78.3533978,25.0725408 78.157787,22.8776812 77.7674123,21.2562692 C77.0899725,18.3802764 75.8070708,16.9400913 73.9204008,16.9400913 C72.0684497,16.9400913 70.8041775,18.3049841 70.1275845,21.0338941 C69.736363,22.6202864 69.5399054,24.7774998 69.5399054,27.5072853 L69.5399054,29.6075918 C69.5399054,32.8162717 69.7710818,35.270277 70.2342813,36.9661059 C70.9811587,39.6950159 72.3351916,41.0599087 74.2946863,41.0599087 M74.0533484,15 C77.7343871,15 80.6719356,16.3692702 82.8676875,19.1025577 C84.955049,21.6913889 86,24.9438434 86,28.8607967 C86,33.0018761 85.0083974,36.3453818 83.0268859,38.8974423 C80.903112,41.6324808 77.8758027,43 73.9466516,43 C70.1944817,43 67.2645544,41.7068976 65.1594101,39.1180664 C63.053419,36.5318617 62,33.241761 62,29.2495154 C62,25.0725408 62.9907558,21.7088988 64.9739609,19.1585892 C67.1324536,16.3859046 70.1589161,15 74.0533484,15" id="Fill-5" fill="#000000"></path>
                <g id="Group-9" transform="translate(86.000000, 0.000000)">
                    <mask id="mask-2" fill="white">
                        <use xlink:href="#path-1"></use>
                    </mask>
                    <g id="Clip-8"></g>
                    <path d="M16.4313,17.977168 C15.7545,17.717568 15.1983,17.514288 14.7663,17.365568 C14.3325,17.216848 13.8717,17.142048 13.3839,17.142048 C11.4642,17.142048 10.0728,18.535088 9.2079,21.322048 C8.6436,23.179728 8.361,25.353328 8.361,27.841968 C8.361,30.405408 8.5869,32.467248 9.0387,34.028368 C9.7902,36.666608 11.1069,37.984848 12.9888,37.984848 C13.7025,37.984848 14.3523,37.809728 14.9355,37.455968 C15.5187,37.102208 16.0164,36.611168 16.4313,35.978448 L16.4313,17.977168 Z M16.4313,7.037008 C16.4313,5.781248 16.2621,4.903888 15.9237,4.404048 C15.5844,3.905968 14.8131,3.655168 13.6098,3.655168 L13.6098,1.647888 L13.8915,1.705088 C16.4871,1.705088 18.9702,1.184128 21.3408,0.143088 L23.7672,0.143088 L23.7105,37.762208 C23.7105,38.840208 23.9274,39.592608 24.3603,40.019408 C24.7923,40.447088 25.5924,40.734848 26.7588,40.883568 L26.7588,42.945408 C24.8769,42.721888 22.977,42.610128 21.0582,42.610128 C20.4561,42.610128 19.7604,42.647968 18.9702,42.721888 C18.18,42.796688 17.4654,42.869728 16.8264,42.945408 L16.8264,38.430128 C15.9237,39.769488 14.8032,40.892368 13.4685,41.802288 C12.1329,42.713088 10.7316,43.168928 9.2646,43.168928 C6.2532,43.168928 3.9591,41.571728 2.3796,38.375568 C1.0998,35.812128 0.4599,32.876448 0.4599,29.570288 C0.4599,25.817088 1.2879,22.547008 2.9439,19.761808 C4.9752,16.344768 7.7778,14.633168 11.3517,14.633168 C12.1041,14.633168 12.9231,14.765168 13.8069,15.023888 C14.6907,15.283488 15.5655,15.637248 16.4313,16.083408 L16.4313,7.037008 Z" id="Fill-7" fill="#000000" mask="url(#mask-2)"></path>
                </g>
                <path d="M53.4715719,71.4533666 C54.3005079,71.6765543 55.1294438,71.787707 55.9583798,71.787707 C58.4443206,71.787707 60.2634708,70.690294 61.4175647,68.4928214 C62.3176019,66.7787751 62.7693546,64.524844 62.7693546,61.7319101 C62.7693546,59.0880621 62.2820513,56.9267583 61.3100458,55.2515272 C60.1195342,53.2401914 58.3185928,52.2345235 55.9037533,52.2345235 C55.1476527,52.2345235 54.5528304,52.4118387 54.1201536,52.7647046 C53.6883439,53.1193348 53.4715719,53.6856847 53.4715719,54.469047 L53.4715719,71.4533666 Z M42,50.1676113 L46.2868822,50.2787641 L50.5737644,50.2787641 C51.4772699,50.2787641 52.8160535,50.2328915 54.5892481,50.139382 C56.3615756,50.0458726 57.6994921,50 58.6047318,50 C62.1858045,50 64.9795615,50.9209801 66.988604,52.7647046 C68.9959123,54.6084291 70,57.3378471 70,60.9494299 C70,65.1211874 69.042735,68.3234457 67.1282051,70.5588514 C65.1044221,72.9415786 62.0704819,74.1342655 58.023783,74.1342655 C57.2650811,74.1342655 56.5063793,74.1166222 55.7476774,74.0786891 C54.9889756,74.0425203 54.2302738,73.9666542 53.4715719,73.8555014 L53.4715719,83.5531394 C53.4715719,85.0113579 53.7160907,86.0302583 54.2059953,86.6089584 C54.6958999,87.1894228 55.664437,87.6834351 57.1142079,88.094524 L57.1142079,90 C54.6135266,89.7397614 52.130187,89.609201 49.6659234,89.609201 C48.5048929,89.609201 47.0109005,89.65772 45.1804781,89.7494652 C43.3500557,89.8429747 42.2896073,89.8879651 42,89.8879651 L42,88.0460049 C43.5217391,87.858986 44.5284281,87.3949672 45.0174656,86.649538 C45.5065032,85.9041087 45.751889,84.7131862 45.751889,83.0732417 L45.751889,56.7035706 C45.751889,55.2515272 45.4648829,54.1426461 44.8934721,53.3804556 C44.3220612,52.6156187 43.3578595,52.2345235 42,52.2345235 L42,50.1676113 Z" id="Fill-10" fill="#000000"></path>
                <path d="M83.4691529,75.7827987 C80.761854,76.3752341 79.1763452,76.8033953 78.7117741,77.0620397 C77.3223229,77.8038946 76.6284497,79.2491574 76.6284497,81.3995756 C76.6284497,82.698914 76.9566329,83.8846586 77.618114,84.9603046 C78.2770378,86.0368244 79.2112946,86.5733367 80.4242941,86.5733367 C81.8137453,86.5733367 82.82813,85.9809013 83.4691529,84.7934091 L83.4691529,75.7827987 Z M83.4691529,68.5888154 C83.4691529,67.4074398 83.2176878,66.4768443 82.71561,65.7935339 C82.210975,65.111971 81.4037294,64.7703158 80.2879062,64.7703158 C79.4619073,64.7703158 78.7612147,65.0009986 78.184976,65.4623642 C77.6104422,65.9237299 77.3223229,66.5790788 77.3223229,67.4266633 C77.3223229,67.7220072 77.3666489,68.1187118 77.4561534,68.6167769 C77.545658,69.1130945 77.5908364,69.3997004 77.5908364,69.4739733 C77.5908364,70.4334041 77.2873735,71.1717638 76.6812999,71.687305 C76.074374,72.2037199 75.3088972,72.4623642 74.384017,72.4623642 C73.3150773,72.4623642 72.5470432,72.1390588 72.0850293,71.4933217 C71.6213106,70.8493322 71.3903037,69.9353389 71.3903037,68.7539633 C71.3903037,66.5790788 72.4779968,65.0106104 74.6499734,64.0511796 C76.2184337,63.3495194 78.2139584,63 80.6382525,63 C83.8067128,63 86.1960575,63.5531145 87.7986148,64.6602172 C89.722536,65.9875172 90.6840703,68.2384222 90.6840703,71.4103108 L90.6840703,85.0791412 C90.6840703,85.7065285 90.7471497,86.1495444 90.8733085,86.4073149 C90.9977624,86.6659593 91.2014917,86.7952815 91.4870538,86.7952815 C91.6635056,86.7952815 91.8979222,86.7210086 92.180927,86.5733367 C92.4664891,86.4265385 92.6983484,86.2788666 92.8773575,86.1311946 L94,87.2933466 C92.8245072,88.493072 91.8979222,89.3284234 91.2185402,89.8011484 C90.0779968,90.5998003 88.9391582,91 87.7986148,91 C86.623122,91 85.6956846,90.6408688 85.0197123,89.9217326 C84.3411827,89.2025964 83.9132658,88.2326801 83.7368141,87.0163525 C82.9517315,88.1391836 81.8759723,89.0846336 80.5035695,89.8509549 C79.1320192,90.6172762 77.7843367,91 76.4673415,91 C74.508471,91 72.9400107,90.3158158 71.7645178,88.9456997 C70.5881726,87.5773312 70,85.8751716 70,83.8383473 C70,80.5074273 71.4832179,77.9533142 74.4539158,76.176008 C76.9591902,74.6957933 79.9639851,73.9556859 83.4691529,73.9556859 L83.4691529,68.5888154 Z" id="Fill-12" fill="#000000"></path>
                <path d="M96.3196933,54.5715641 C96.3196933,53.6412307 96.6593377,52.813974 97.3421553,52.088913 C98.0240907,51.36209 98.8083605,51 99.6932003,51 C100.762419,51 101.611088,51.355042 102.237446,52.0598401 C102.865567,52.7681621 103.178746,53.6782326 103.178746,54.7944565 C103.178746,55.687788 102.883211,56.5520466 102.293024,57.3889943 C101.702837,58.225061 100.965323,58.6444158 100.080483,58.6444158 L99.3614957,58.6444158 C98.4396037,58.6444158 97.7020901,58.217132 97.1489549,57.3608024 C96.5958198,56.5053538 96.3196933,55.5759013 96.3196933,54.5715641 L96.3196933,54.5715641 Z M93,88.0477094 C94.2174267,88.0477094 95.0193404,87.8988208 95.4066232,87.6001626 C95.7939061,87.3023855 95.9871064,86.5367986 95.9871064,85.306926 L95.9871064,68.7503388 C95.9871064,67.6702358 95.9138844,66.9434128 95.7656759,66.5689889 C95.5080755,65.8985497 94.9178882,65.5628897 93.9959962,65.5628897 L93,65.5628897 L93,63.7762266 C94.7052796,63.7762266 96.067386,63.6846029 97.0880836,63.4978314 C98.107899,63.3137029 99.3967834,62.903158 100.953855,62.2697208 L103.178746,62.2697208 L103.178746,84.1528192 C103.178746,85.5650583 103.289902,86.5112497 103.510451,86.9931553 C103.878325,87.7728382 104.689943,88.1622391 105.944422,88.1622391 L106,90 C104.9299,89.9013283 103.832451,89.8008946 102.708537,89.7031038 C101.582858,89.6035511 100.503936,89.5542152 99.472652,89.5542152 C98.2913952,89.5542152 97.4436075,89.5735972 96.9284066,89.6097181 C96.4114414,89.64672 95.1022666,89.7762266 93,90 L93,88.0477094 Z" id="Fill-14" fill="#000000"></path>
                <g id="Group-18" transform="translate(107.000000, 62.000000)">
                    <mask id="mask-4" fill="white">
                        <use xlink:href="#path-3"></use>
                    </mask>
                    <g id="Clip-17"></g>
                    <path d="M0.612434783,26.3566939 C1.59330435,26.3566939 2.24721739,26.281997 2.57504348,26.1334818 C3.12026087,25.8733606 3.39243478,25.2968758 3.39243478,24.4040273 L3.39243478,6.27111818 C3.39243478,5.26754242 3.19330435,4.6532697 2.79243478,4.43005758 C2.39330435,4.20684545 1.66547826,4.09523939 0.612434783,4.09523939 L0.612434783,2.14696667 C1.81156522,2.14696667 2.66634783,2.12148182 3.17417391,2.06699697 C3.68373913,2.01339091 4.41069565,1.87893636 5.35678261,1.66451212 L8.19069565,0.754966667 L9.88113043,0.754966667 L10.3715652,6.98996667 C10.9533043,5.31939091 11.6446087,3.96605758 12.4446087,2.9273303 C13.5698261,1.47908788 14.8063478,0.754966667 16.1515652,0.754966667 C17.1333043,0.754966667 17.9872174,1.21984545 18.7150435,2.14696667 C19.4411304,3.07584545 19.8054783,4.0583303 19.8054783,5.09793636 C19.8054783,6.28517879 19.5324348,7.34148182 18.9872174,8.26948182 C18.442,9.19748182 17.6246087,9.66148182 16.5333043,9.66148182 C15.7698261,9.66148182 15.2054783,9.4382697 14.8428696,8.99184545 C14.4793913,8.54717879 14.2063478,7.91796667 14.0254783,7.09981515 C13.8428696,6.87836061 13.6072174,6.72984545 13.3167826,6.65514848 C12.8802609,6.65514848 12.3072174,7.37048182 11.5985217,8.79763333 C10.8898261,10.2265424 10.5350435,11.2186939 10.5350435,11.7749667 L10.5350435,23.7967848 C10.5350435,24.9840273 10.8446087,25.726603 11.4637391,26.0218758 C11.6446087,26.0974515 12.4985217,26.2653 14.0254783,26.5227848 L14.0254783,28.4156939 C13.3733043,28.4156939 12.3776522,28.3418758 11.0385217,28.1924818 C9.6993913,28.0457242 8.66808696,27.9710273 7.94373913,27.9710273 C6.92982609,27.9710273 5.81678261,28.0026636 4.60286957,28.0659364 C3.38982609,28.1300879 2.06026087,28.2452091 0.612434783,28.4156939 L0.612434783,26.3566939 Z" id="Fill-16" fill="#000000" mask="url(#mask-4)"></path>
                </g>
                <path d="M15.6587927,126.580172 C19.9536308,126.580172 23.1286089,124.6969 25.1846019,120.928578 C26.8346457,117.912677 27.6614173,114.013769 27.6614173,109.226526 C27.6614173,104.441059 26.8565179,100.465755 25.2467192,97.2997246 C23.1627297,93.1929466 19.9991251,91.1382251 15.7567804,91.1382251 C14.44007,91.1382251 13.5529309,91.3727458 13.096238,91.8444523 C12.6377953,92.3161588 12.4111986,93.2116017 12.4111986,94.5290042 L12.4111986,122.906014 C12.4111986,124.226082 12.6307962,125.168606 13.071741,125.733588 C13.511811,126.299458 14.3744532,126.580172 15.6587927,126.580172 L15.6587927,126.580172 Z M1,127.031447 C2.38932633,126.84312 3.37620297,126.430932 3.96150481,125.792218 C4.54768154,125.155281 4.83989501,124.142578 4.83989501,122.755885 L4.83989501,94.9074354 C4.83989501,93.5953629 4.53893263,92.6670516 3.93525809,92.1233899 C3.33158355,91.5797282 2.35258093,91.1764236 1,90.9134761 L1,89.0559652 L7.03499563,89 L19.2134733,89 C24.7716535,89 29.0139983,90.8592876 31.9396325,94.5778627 C34.6465442,98.0326019 36,102.68926 36,108.549614 C36,114.822155 34.3175853,119.797726 30.951881,123.478991 C27.5879265,127.160256 22.8512686,129 16.7445319,129 C15.3184602,129 14.1469816,128.977792 13.2344707,128.931598 C9.64829396,128.753043 7.69291339,128.663321 7.36395451,128.663321 C6.08311461,128.663321 4.95800525,128.681976 3.9903762,128.718397 C3.02099738,128.755708 2.02362205,128.849871 1,129 L1,127.031447 Z" id="Fill-19" fill="#000000"></path>
                <path d="M49.4696313,112.783274 C46.7613838,113.37569 45.1758187,113.802965 44.7120835,114.061601 C43.3225829,114.804306 42.6278326,116.249524 42.6278326,118.399875 C42.6278326,119.699173 42.95688,120.884881 43.6175321,121.960493 C44.2756269,123.036105 45.2116218,123.573475 46.4238119,123.573475 C47.8133125,123.573475 48.8285856,122.981058 49.4696313,121.793603 L49.4696313,112.783274 Z M49.4696313,105.589515 C49.4696313,104.408176 49.2173048,103.47761 48.7152092,102.793447 C48.2105562,102.112779 47.4024295,101.771134 46.2882716,101.771134 C45.4613909,101.771134 44.7606734,102.00181 44.1852667,102.462287 C43.6098601,102.924512 43.3225829,103.578967 43.3225829,104.427399 C43.3225829,104.722734 43.3669106,105.119426 43.4564183,105.617475 C43.5450735,106.113778 43.5902536,106.400374 43.5902536,106.474645 C43.5902536,107.434046 43.2867799,108.171509 42.6815373,108.687908 C42.0745898,109.204306 41.3090857,109.462943 40.3833203,109.462943 C39.3143425,109.462943 38.5471336,109.139647 38.0842509,108.49393 C37.6205157,107.849087 37.3895006,106.935996 37.3895006,105.754658 C37.3895006,103.578967 38.4763799,102.010548 40.6501385,101.051147 C42.2178021,100.350382 44.2133977,100 46.6369255,100 C49.8072032,100 52.1966328,100.553097 53.8000995,101.661039 C55.7232365,102.987424 56.6856575,105.238259 56.6856575,108.410922 L56.6856575,122.079326 C56.6856575,122.706694 56.7478866,123.149696 56.8731974,123.407458 C56.9976558,123.666095 57.2013923,123.795413 57.4869646,123.795413 C57.6651275,123.795413 57.8969951,123.721142 58.1817149,123.573475 C58.4681395,123.426681 58.6991546,123.279014 58.8781701,123.131347 L60,124.292589 C58.8244654,125.49315 57.8969951,126.328476 57.2201463,126.801186 C56.07871,127.599813 54.9398309,128 53.8000995,128 C52.6237124,128 51.6970946,127.64088 51.0193933,126.920892 C50.3416921,126.201779 49.9146125,125.232766 49.7364495,124.015603 C48.953044,125.139273 47.8746892,126.08382 46.5030901,126.850991 C45.1306386,127.616414 43.7854657,128 42.4675712,128 C40.5077786,128 38.9401151,127.315837 37.7637281,125.945764 C36.5873411,124.576564 36,122.875332 36,120.837697 C36,117.507755 37.4832706,114.953721 40.454074,113.176471 C42.9585849,111.696302 45.9634865,110.956218 49.4696313,110.956218 L49.4696313,105.589515 Z" id="Fill-21" fill="#000000"></path>
                <path d="M58,100.113294 C58.9152792,100.113294 60.1098531,100.161467 61.5862456,100.254243 C63.0643205,100.349696 63.9249185,100.396084 64.1714045,100.396084 C64.9445126,100.396084 66.2198465,100.349696 67.9957236,100.254243 C69.7707596,100.161467 70.7129587,100.113294 70.8181149,100.113294 L70.8181149,102.091929 L70.3958078,102.091929 C69.6218585,102.091929 68.9799853,102.232878 68.4701882,102.514775 C67.9603912,102.799349 67.7054927,103.317648 67.7054927,104.07324 C67.7054927,104.866299 67.8190613,105.734294 68.0487224,106.678115 C68.2767009,107.622828 68.5147744,108.530074 68.7604192,109.396284 L71.7670441,124.293138 C72.3651723,121.920203 72.8034631,120.151208 73.0861229,118.983474 C74.4220267,113.748746 75.1867223,110.696938 75.3810509,109.83162 C75.5736969,108.96541 75.7840093,107.957359 76.0136703,106.808359 C76.2416488,105.660251 76.3569,104.689667 76.3569,103.899284 C76.3569,103.25877 76.1886501,102.835032 75.8555154,102.627177 C75.5206982,102.421999 74.9839812,102.242691 74.2462056,102.091929 L74.2462056,100 C74.8443338,100.076719 75.5206982,100.141841 76.2769813,100.198042 C77.0332644,100.254243 77.5699814,100.28279 77.8862911,100.28279 C78.5534018,100.28279 79.2390199,100.272977 79.9431456,100.249783 C80.6455887,100.226588 81.3312068,100.181984 82,100.113294 L82,102.091929 L81.6306916,102.091929 C80.7170949,102.354201 80.0483017,103.068757 79.6268359,104.234706 C79.2751937,105.664712 79.0110414,106.717367 78.8360616,107.393564 L74.4043605,124.54292 C73.7364086,126.987221 73.0861229,129.451147 72.4535035,131.932023 C71.4322269,135.12924 70.2721441,137.272018 68.972414,138.363924 C67.6701602,139.454047 66.2627502,140 64.7518665,140 C63.1341442,140 61.7099092,139.604808 60.4791616,138.812641 C59.0019279,137.870604 58.263311,136.609202 58.263311,135.028435 C58.263311,133.935636 58.5190508,132.993599 59.0288478,132.203216 C59.5378036,131.41194 60.268008,131.016749 61.2169372,131.016749 C62.2373725,131.016749 63.0113218,131.337006 63.5387851,131.976627 C64.0662484,132.617141 64.3295594,133.482459 64.3295594,134.577042 C64.3295594,135.028435 64.267307,135.432548 64.1444846,135.78938 C64.0208209,136.147996 63.7835886,136.646669 63.4327877,137.288075 C63.8550948,137.437945 64.4877143,137.513771 65.3323285,137.513771 C66.8785446,137.513771 68.1984647,136.251478 69.2887238,133.728674 C69.6748572,132.860679 70.2906516,130.865987 71.1344246,127.741029 L65.9119492,127.741029 C64.470048,121.425991 63.028988,115.094895 61.5862456,108.742389 C61.0587823,106.149111 60.7592976,104.75925 60.6894739,104.571913 C60.1266781,102.918888 59.2299064,102.091929 58,102.091929 L58,100.113294 Z" id="Fill-23" fill="#000000"></path>
                <path d="M83,118.298788 L85.4742852,118.298788 C85.8857696,120.68797 86.3734548,122.359963 86.9355478,123.315636 C87.8347174,124.822257 89.3318392,125.575132 91.4313957,125.575132 C92.5573747,125.575132 93.5309522,125.281815 94.3557139,124.693441 C95.1786826,124.105937 95.59196,123.27995 95.59196,122.211999 C95.59196,120.559154 94.5421817,119.217905 92.4435218,118.18825 C90.3439653,117.160336 88.2847504,116.148959 86.2613947,115.1576 C84.0856374,113.576997 83,111.317501 83,108.37737 C83,105.620889 84.1241861,103.490208 86.3734548,101.982717 C88.3591583,100.659745 90.8128244,100 93.7371426,100 C94.8971879,100 95.909314,100.064408 96.7717278,100.192353 C97.6332453,100.322039 98.7771539,100.550078 100.201661,100.880821 L100.201661,107.550513 L97.6708974,107.550513 C97.6708974,105.97078 97.2020383,104.684364 96.2661131,103.692136 C95.3292913,102.699907 94.0544966,102.203792 92.4435218,102.203792 C91.4690478,102.203792 90.6173917,102.478831 89.8867604,103.03065 C89.1561291,103.581598 88.7894687,104.317936 88.7894687,105.234442 C88.7894687,106.485173 89.9324809,107.624495 92.2185052,108.652409 C95.7407757,110.233012 97.8582618,111.299223 98.570067,111.850171 C100.856091,113.613553 102,116.05844 102,119.181349 C102,121.93696 101.05242,124.096363 99.1608474,125.657818 C97.2692743,127.220143 94.8792583,128 91.9934887,128 C88.6962348,128 85.6993017,127.339385 83,126.015542 L83,118.298788 Z" id="Fill-25" fill="#000000"></path>
            </g>
        </g>
    </g>
</svg>