<?xml version="1.0" encoding="UTF-8"?>
<svg width="200px" height="35px" viewBox="0 0 200 35" version="1.1" xmlns="http://www.w3.org/2000/svg" xmlns:xlink="http://www.w3.org/1999/xlink">
    <!-- Generator: Sketch 54.1 (76490) - https://sketchapp.com -->
    <title>gpd_hor_coral</title>
    <desc>Created with Sketch.</desc>
    <g id="Symbols-&amp;-Palette" stroke="none" stroke-width="1" fill="none" fill-rule="evenodd">
        <g id="topbar_desktop_not_logged_in" transform="translate(-210.000000, -23.000000)" fill="#000000" fill-rule="nonzero">
            <g id="gpd_hor_coral" transform="translate(210.000000, 23.000000)">
                <path d="M19.5384615,9.46667705 L17.7651822,9.46667705 C17.8274314,7.95192447 17.3761403,6.46103234 16.48583,5.24018997 C15.5808635,4.00308338 14.1295836,3.29646715 12.6072874,3.35175958 C10.1794791,3.2853928 7.93011002,4.63399645 6.82591093,6.81796948 C5.68473297,8.97752939 5.12623835,11.4021479 5.20647773,13.8484896 C5.17628167,16.3872076 5.70739817,18.9007547 6.7611336,21.2060106 C8.08097166,24.0018686 9.91902834,25.4079726 12.2753036,25.4079726 C13.1147112,25.3896722 13.9414741,25.1976883 14.7044534,24.843896 L14.7044534,18.6145282 C14.7044534,16.9795235 13.9352227,16.1620212 12.388664,16.1620212 L12.388664,14.7559172 C13.1497976,14.8376674 14.0080972,14.8948926 15.0202429,14.9357677 C16.0323887,14.9766428 17.1012146,15.0011679 18.2591093,15.0011679 C18.6720648,15.0011679 19.3522267,14.9602927 20.2834008,14.8785425 L21.8623482,14.715042 L21.8623482,16.0230458 C21.0431552,16.09126 20.2959698,16.5223286 19.8218623,17.2002491 C19.5556529,17.9882317 19.450967,18.8226468 19.51417,19.6527562 L19.51417,22.742915 C19.51417,23.0535659 19.5465587,23.5277172 19.611336,24.165369 C19.6721924,24.6509066 19.7073302,25.1393781 19.7165992,25.6286982 C17.2874494,26.3426503 15.8434548,26.7595765 15.3846154,26.8794768 C13.9119716,27.2541576 12.4011223,27.4544319 10.8825911,27.4762535 C7.2388664,27.4762535 4.46153846,26.258175 2.57489879,23.805668 C0.858299595,21.5929617 0,18.5791031 0,14.7640922 C0,10.7855808 1.07962213,7.60004671 3.2388664,5.20748988 C5.39811066,2.81493304 8.4048583,1.62410464 12.2591093,1.63500467 C13.157196,1.64449399 14.0521854,1.743068 14.9311741,1.92930551 C16.3909764,2.26540619 17.8702838,2.50841224 19.3603239,2.65688259 L19.5384615,9.46667705 Z" id="Path"></path>
                <path d="M30.2105263,9.39310184 C32.4262814,9.31114012 34.5527869,10.2787807 35.9595142,12.0091093 C37.356165,13.7657665 38.0804096,15.9709985 38,18.2221271 C38.1065548,20.5149058 37.4226632,22.7740922 36.0647773,24.6149953 C34.6126657,26.3878404 32.4127349,27.3588061 30.1376518,27.2310028 C27.9549053,27.346713 25.8407643,26.4422768 24.4048583,24.7784958 C22.9878251,22.9972445 22.2572669,20.7583615 22.3481781,18.4755528 C22.2364887,16.1682275 22.9235509,13.8935727 24.291498,12.0418094 C25.7361045,10.2602253 27.9329011,9.27718016 30.2105263,9.39310184 Z M30.3643725,25.9965743 C31.6923077,25.9965743 32.5101215,24.7539707 32.8421053,22.2605886 C32.9703711,21.1126359 33.0271629,19.9576882 33.0121457,18.8025537 L33.0121457,17.5763002 C33.0458186,16.1682345 32.9181149,14.76096 32.6315789,13.3825132 C32.1862348,11.551308 31.3522267,10.6275304 30.1214575,10.6275304 C28.8906883,10.6275304 28.0890688,11.5022579 27.6437247,13.2353628 C27.3601744,14.5783375 27.232459,15.9500763 27.2631579,17.3228745 L27.2631579,18.6554033 C27.2147509,20.232705 27.3671441,21.8097541 27.7165992,23.3478667 C28.2024291,25.1218468 29.0850202,25.9965743 30.3643725,25.9965743 Z" id="Shape"></path>
                <path d="M46.3238866,9.39310184 C48.5398892,9.30986349 50.6669306,10.277748 52.0728745,12.0091093 C53.4724286,13.7646247 54.1995844,15.9699695 54.1214575,18.2221271 C54.2290783,20.5163208 53.541952,22.7767351 52.1781377,24.6149953 C50.7293645,26.3876023 48.5318802,27.358815 46.2591093,27.2310028 C44.0757148,27.3504405 41.9600199,26.4453397 40.5263158,24.7784958 C39.1037522,22.9998384 38.3699448,20.7598168 38.4615385,18.4755528 C38.3505286,16.1683128 39.0375223,13.8938848 40.4048583,12.0418094 C41.8478424,10.2580763 44.045774,9.2745233 46.3238866,9.39310184 Z M46.48583,25.9965743 C47.8083671,25.9965743 48.6315789,24.7512457 48.9554656,22.2605886 C49.0871003,21.1128637 49.1465986,19.9578731 49.1336032,18.8025537 L49.1336032,17.5763002 C49.169318,16.1677536 49.0388456,14.7599216 48.7449393,13.3825132 C48.3076923,11.551308 47.465587,10.6275304 46.242915,10.6275304 C45.0202429,10.6275304 44.2024291,11.5022579 43.7651822,13.2353628 C43.4776812,14.5777241 43.3499218,15.9499357 43.3846154,17.3228745 L43.3846154,18.6554033 C43.3320974,20.2328399 43.4845422,21.810424 43.8380567,23.3478667 C44.3238866,25.1218468 45.2064777,25.9965743 46.48583,25.9965743 L46.48583,25.9965743 Z" id="Shape"></path>
                <path d="M64.6234818,4.36546247 C64.6623001,3.80279007 64.5563031,3.23954681 64.3157895,2.7304578 C64.1052632,2.41980691 63.6356275,2.25630645 62.8906883,2.25630645 L62.8906883,0.956477733 L63.0688259,0.956477733 C64.6414712,0.972546374 66.1990835,0.64631772 67.6356275,0 L69.1255061,0 L69.1255061,23.8383681 C69.0703673,24.3490342 69.2124886,24.8614905 69.5222672,25.2689972 C69.9442162,25.6035035 70.4598933,25.795166 70.9959514,25.8167238 L70.9959514,27.1247275 C69.835138,26.9842212 68.6671012,26.9132468 67.4979757,26.9121769 C67.1255061,26.9121769 66.6882591,26.9121769 66.2186235,26.9857521 L64.8987854,27.1247275 L64.8987854,24.2634693 C64.357226,25.1029978 63.6586117,25.8277677 62.8421053,26.3971504 C62.0920293,26.9515697 61.188672,27.2546311 60.2591093,27.2637029 C58.4129555,27.2637029 57.0202429,26.258175 56.0323887,24.2307692 C55.223048,22.4847972 54.8213755,20.5745887 54.8582996,18.6472283 C54.8041312,16.4758103 55.3299521,14.3297122 56.3805668,12.4342105 C57.6275304,10.2542043 59.3468286,9.16420118 61.5384615,9.16420118 C62.0503138,9.17103756 62.5581538,9.2564914 63.0445344,9.41762691 C63.605598,9.58467157 64.1482404,9.80929423 64.6639676,10.0879788 L64.6234818,4.36546247 Z M64.6234818,11.2978823 L63.6032389,10.9136562 C63.3431032,10.8212645 63.0692845,10.7742678 62.7935223,10.7746808 C61.6194332,10.7746808 60.7611336,11.6575833 60.2348178,13.4233884 C59.8699216,14.7539759 59.6954148,16.130419 59.7165992,17.5109 C59.6821288,18.8315714 59.8209869,20.1510381 60.1295547,21.4349112 C60.5910931,23.0699159 61.4008097,23.9446434 62.5587045,23.9446434 C62.9826297,23.9494749 63.3988646,23.8302184 63.757085,23.6012924 C64.1290993,23.3659327 64.4422332,23.0469901 64.6720648,22.6693398 L64.6234818,11.2978823 Z" id="Shape"></path>
                <path d="M77.1255061,1.97835565 L79.854251,2.05193086 L82.5910931,2.05193086 C83.1659919,2.05193086 84.0242915,2.05193086 85.1497976,1.96200561 C86.2753036,1.87208035 87.1336032,1.87208035 87.708502,1.87208035 C89.64484,1.75248589 91.5542166,2.37753966 93.0526316,3.62153535 C94.3319838,4.78238866 94.9716599,6.50731859 94.9716599,8.79632513 C94.9716599,11.4286827 94.3562753,13.4560884 93.1417004,14.8703675 C91.9271255,16.2846465 89.8785425,17.1675491 87.3279352,17.1675491 C86.8502024,17.1675491 86.3643725,17.1675491 85.8785425,17.1675491 C85.3927126,17.1675491 84.9149798,17.0939738 84.4291498,17.0285737 L84.4291498,23.1598412 C84.3614893,23.8383192 84.5273339,24.5196237 84.8987854,25.0891467 C85.4191733,25.5691631 86.0609095,25.894531 86.7530364,26.0292744 L86.7530364,27.2310028 C85.1765078,27.0683952 83.5928312,26.98654 82.0080972,26.9857521 C81.2631579,26.9857521 80.3157895,26.9857521 79.1497976,27.0756774 L77.1255061,27.1656026 L77.1255061,25.9229991 C77.8616133,25.923044 78.5616106,25.6009907 79.0445344,25.0400965 C79.412283,24.3490742 79.5753147,23.5658088 79.51417,22.7837901 L79.51417,6.10674245 C79.5613872,5.36463963 79.3681198,4.62717929 78.9635628,4.00576145 C78.5035651,3.47657614 77.8196955,3.20283134 77.1255061,3.27000934 L77.1255061,1.97835565 Z M84.4129555,15.4344441 C84.94131,15.5761173 85.4857179,15.6475709 86.0323887,15.6469947 C87.4992,15.7167677 88.865866,14.8966027 89.5060729,13.5623637 C90.13632,12.2299865 90.4337833,10.7620499 90.3724696,9.28682653 C90.4259378,7.86512357 90.1046013,6.45457463 89.4412955,5.19931486 C88.7437096,3.94701604 87.4051983,3.20011661 85.9838057,3.27000934 C85.5765242,3.2470916 85.1737105,3.36534807 84.8421053,3.6051853 C84.5447599,3.87980966 84.3919352,4.27915932 84.4291498,4.68428838 L84.4129555,15.4344441 Z" id="Shape"></path>
                <path d="M103.004049,13.0800374 C103.040106,12.4470791 102.866318,11.820026 102.510121,11.2978823 C102.12542,10.8316103 101.537685,10.5869148 100.939271,10.6438804 C100.4491,10.6291416 99.9688122,10.7850041 99.5789474,11.0853317 C99.2031557,11.3863705 98.994962,11.8524563 99.0202429,12.3361102 C99.0250027,12.591883 99.0548379,12.8465513 99.1093117,13.0963874 C99.1458308,13.277397 99.172859,13.460227 99.1902834,13.644114 C99.2220555,14.1827355 99.0035391,14.7055688 98.5991903,15.058393 C98.1796168,15.3962146 97.6536472,15.5703219 97.1174089,15.5488944 C96.5510018,15.6052315 95.9935329,15.3758174 95.6275304,14.9357677 C95.2972519,14.4155652 95.1385251,13.8031701 95.1740891,13.1863127 C95.1498541,11.8262926 96.007057,10.6093639 97.2874494,10.1860791 C98.5214822,9.69789933 99.8413913,9.46977147 101.165992,9.51572719 C102.786599,9.42443409 104.398548,9.81070472 105.805668,10.6275304 C107.063428,11.4559327 107.692308,12.8811118 107.692308,14.9030676 L107.692308,23.6258175 C107.678336,23.9037718 107.719634,24.1817368 107.813765,24.4433198 C107.88522,24.5981107 108.041485,24.6947036 108.210526,24.6885705 C108.369776,24.6755079 108.5244,24.6281173 108.663968,24.5495951 C108.823903,24.4692107 108.975757,24.3733888 109.117409,24.2634693 L109.846154,25.0073964 C109.289966,25.6017518 108.686015,26.1486194 108.040486,26.6424011 C107.395991,27.1212217 106.621765,27.389386 105.821862,27.4108533 C105.152015,27.4481467 104.498182,27.1953979 104.024291,26.7159763 C103.567992,26.2018545 103.284554,25.5551252 103.214575,24.8684211 C102.658818,25.6220533 101.942012,26.2395723 101.117409,26.6751012 C100.32189,27.141195 99.42165,27.3944478 98.5020243,27.4108533 C97.3429075,27.4559643 96.2250838,26.9727194 95.4574899,26.0946746 C94.6837881,25.1880442 94.2762278,24.0207274 94.3157895,22.8246652 C94.2869729,20.7981786 95.3887644,18.9273483 97.1659919,17.9850514 C98.9572581,17.0018362 100.974046,16.5139428 103.012146,16.5707723 L103.004049,13.0800374 Z M103.004049,17.6744005 C101.95418,17.856096 100.921952,18.1296272 99.9190283,18.4919028 C99.0202429,18.9660542 98.5668016,19.8898318 98.5668016,21.2632358 C98.5630423,22.0665942 98.7848348,22.8545838 99.2064777,23.5358922 C99.5805839,24.1907125 100.279862,24.5860738 101.02834,24.5659452 C101.850305,24.6096783 102.622128,24.1657643 103.004049,23.4296169 L103.004049,17.6744005 Z" id="Shape"></path>
                <path d="M109.481781,25.9229991 C109.999791,25.9773513 110.522388,25.8809042 110.987854,25.6450483 C111.230769,25.4488477 111.352227,24.9665213 111.352227,24.1898941 L111.352227,13.7095142 C111.379614,13.2440201 111.330363,12.7771625 111.206478,12.3279352 C111.027958,11.8932491 110.584,11.6323406 110.121457,11.6902834 L109.497976,11.6902834 L109.497976,10.5621302 C110.354478,10.5791583 111.210777,10.5189693 112.05668,10.3822797 C112.890115,10.2061919 113.703918,9.94600954 114.48583,9.60565244 L115.878543,9.60565244 L115.878543,23.5031922 C115.838677,24.1074071 115.907255,24.7139234 116.080972,25.2935223 C116.392336,25.8342122 116.998515,26.128882 117.611336,26.0374494 L117.611336,27.1983027 L115.554656,26.9775771 C114.850202,26.9203519 114.178138,26.8876518 113.530364,26.8876518 C112.882591,26.8876518 112.259109,26.8876518 111.910931,26.8876518 L109.481781,27.1329025 L109.481781,25.9229991 Z M111.554656,4.73333852 C111.556556,4.14584979 111.786162,3.58245239 112.194332,3.16373404 C112.562268,2.72486414 113.098671,2.46598658 113.668016,2.45250701 C114.281874,2.41867549 114.877696,2.66831933 115.287449,3.13103395 C115.694942,3.62697182 115.897887,4.26215125 115.854251,4.90501401 C115.84276,5.49573918 115.647277,6.06780485 115.295547,6.54001869 C115.009475,7.04035568 114.48311,7.35113107 113.910931,7.35752102 L113.45749,7.35752102 C112.885311,7.35113107 112.358946,7.04035568 112.072874,6.54001869 C111.728609,6.00202852 111.548414,5.37380891 111.554656,4.73333852 L111.554656,4.73333852 Z" id="Shape"></path>
                <path d="M118.218623,25.8494239 C118.63918,25.8795262 119.06166,25.8324404 119.465587,25.7104485 C119.846063,25.4880027 120.054398,25.0543815 119.991903,24.6149953 L119.991903,13.0800374 C119.991903,12.4423855 119.862348,12.0581595 119.611336,11.911009 C119.168164,11.7378671 118.692684,11.6653011 118.218623,11.6984584 L118.218623,10.488555 C118.985155,10.488555 119.524966,10.4722049 119.838057,10.4395048 C120.161943,10.4395048 120.647773,10.3168795 121.230769,10.1860791 L123.02834,9.60565244 L124.105263,9.60565244 L124.412955,13.5623637 C124.712037,12.6375578 125.157776,11.7678781 125.732794,10.9872314 C126.254286,10.172873 127.130043,9.65938169 128.089069,9.60565244 C128.737499,9.62218553 129.339167,9.95020998 129.708502,10.488555 C130.14465,11.0139168 130.387766,11.6751987 130.396761,12.3606353 C130.410254,13.0663184 130.230957,13.7621189 129.878543,14.3716911 C129.565754,14.9415271 128.96044,15.2835088 128.315789,15.2545936 C127.915225,15.2871462 127.521793,15.1336764 127.246964,14.8376674 C126.983414,14.4835799 126.805909,14.0719539 126.728745,13.635939 C126.614051,13.4914746 126.454182,13.3905959 126.275304,13.3498131 C126,13.3498131 125.635628,13.8076145 125.182186,14.706867 C124.84152,15.2905355 124.613477,15.9340875 124.510121,16.6034724 L124.510121,24.2307692 C124.510121,24.9828714 124.704453,25.4570227 125.101215,25.6450483 C125.214575,25.6859234 125.757085,25.7921987 126.720648,25.9556992 L126.720648,27.1574276 C126.084383,27.1450801 125.449214,27.0986899 124.817814,27.0184522 C124.008097,26.9285269 123.311741,26.8794768 122.8583,26.8794768 C122.210526,26.8794768 121.506073,26.8794768 120.736842,26.936702 C119.967611,26.9939271 119.117409,27.0511523 118.194332,27.1574276 L118.218623,25.8494239 Z" id="Path"></path>
                <path d="M135.870445,25.8494239 C136.563365,25.8132959 137.223277,25.5392941 137.740891,25.0727966 C138.1567,24.5311662 138.353478,23.8504282 138.291498,23.1680162 L138.291498,5.72251635 C138.358513,5.08442039 138.152264,4.44782235 137.724696,3.97306135 C137.182571,3.56122694 136.543475,3.29918579 135.870445,3.21278418 L135.870445,2.01105575 L139.684211,2.01105575 L147.368421,2.01105575 C150.882591,2.01105575 153.554656,3.18008409 155.408907,5.50996574 C157.11471,7.68997197 157.967611,10.6139053 157.967611,14.2817658 C157.967611,18.2221271 156.906883,21.347711 154.785425,23.6585176 C152.663968,25.9693242 149.673414,27.1247275 145.813765,27.1247275 C144.906883,27.1247275 144.194332,27.1247275 143.595142,27.0756774 C141.327935,26.9694021 140.097166,26.9121769 139.88664,26.9121769 C139.076923,26.9121769 138.37247,26.9121769 137.757085,26.9121769 C137.125438,26.9375159 136.495627,26.9975549 135.870445,27.0920274 L135.870445,25.8494239 Z M145.125506,25.5714731 C147.643762,25.671078 149.990646,24.2870384 151.1417,22.0235129 C152.268591,19.7432168 152.806166,17.2122884 152.704453,14.6659919 C152.792104,12.0833493 152.270336,9.51667129 151.182186,7.17767051 C150.14392,4.783336 147.778584,3.2569007 145.190283,3.31088446 C144.594148,3.24301684 143.994224,3.40026403 143.506073,3.75233572 C143.162157,4.244117 143.00941,4.84642969 143.076923,5.44456556 L143.076923,23.2661165 C143.024645,23.8867027 143.169271,24.5079898 143.489879,25.0400965 C143.930472,25.4526352 144.5293,25.6471799 145.125506,25.5714731 L145.125506,25.5714731 Z" id="Shape"></path>
                <path d="M166.947368,13.0800374 C166.983426,12.4470791 166.809637,11.820026 166.453441,11.2978823 C166.06874,10.8316103 165.481005,10.5869148 164.882591,10.6438804 C164.392419,10.6291416 163.912132,10.7850041 163.522267,11.0853317 C163.146476,11.3863705 162.938282,11.8524563 162.963563,12.3361102 C162.968323,12.591883 162.998158,12.8465513 163.052632,13.0963874 C163.089151,13.277397 163.116179,13.460227 163.133603,13.644114 C163.165375,14.1827355 162.946859,14.7055688 162.54251,15.058393 C162.122937,15.3962146 161.596967,15.5703219 161.060729,15.5488944 C160.494322,15.6052315 159.936853,15.3758174 159.57085,14.9357677 C159.236891,14.4172008 159.077842,13.8035645 159.117409,13.1863127 C159.093174,11.8262926 159.950377,10.6093639 161.230769,10.1860791 C162.464802,9.69789933 163.784711,9.46977147 165.109312,9.51572719 C166.729918,9.42443409 168.341868,9.81070472 169.748988,10.6275304 C171.022942,11.4559327 171.659919,12.8811118 171.659919,14.9030676 L171.659919,23.6258175 C171.645948,23.9037718 171.687245,24.1817368 171.781377,24.4433198 C171.851101,24.59966 172.008517,24.6969639 172.178138,24.6885705 C172.337388,24.6755079 172.492011,24.6281173 172.631579,24.5495951 C172.791514,24.4692107 172.943369,24.3733888 173.08502,24.2634693 L173.805668,25.0073964 C173.253771,25.6031706 172.652386,26.1501679 172.008097,26.6424011 C171.362878,27.1198233 170.589098,27.387833 169.789474,27.4108533 C169.119626,27.4481467 168.465793,27.1953979 167.991903,26.7159763 C167.535603,26.2018545 167.252165,25.5551252 167.182186,24.8684211 C166.62643,25.6220533 165.909623,26.2395723 165.08502,26.6751012 C164.289501,27.141195 163.389261,27.3944478 162.469636,27.4108533 C161.310519,27.4559643 160.192695,26.9727194 159.425101,26.0946746 C158.651399,25.1880442 158.243839,24.0207274 158.283401,22.8246652 C158.254584,20.7981786 159.356376,18.9273483 161.133603,17.9850514 C162.924869,17.0018362 164.941657,16.5139428 166.979757,16.5707723 L166.947368,13.0800374 Z M166.947368,17.6744005 C165.8975,17.856096 164.865271,18.1296272 163.862348,18.4919028 C162.963563,18.9660542 162.510121,19.8898318 162.510121,21.2632358 C162.506362,22.0665942 162.728155,22.8545838 163.149798,23.5358922 C163.523904,24.1907125 164.223182,24.5860738 164.97166,24.5659452 C165.793625,24.6096783 166.565448,24.1657643 166.947368,23.4296169 L166.947368,17.6744005 Z" id="Shape"></path>
                <path d="M172.323887,9.67922765 C172.923077,9.67922765 173.708502,9.67922765 174.680162,9.76915291 C175.651822,9.85907817 176.218623,9.85090315 176.380567,9.85090315 C176.882591,9.85090315 177.724696,9.85090315 178.890688,9.76915291 C180.05668,9.68740268 180.672065,9.67922765 180.744939,9.67922765 L180.744939,10.9136562 L180.461538,10.9136562 C180.026015,10.8999054 179.59337,10.9895063 179.198381,11.1752569 C178.853843,11.3734754 178.657136,11.7578599 178.696356,12.1562597 C178.701979,12.7088367 178.778181,13.2583731 178.923077,13.7912644 C179.068826,14.3798661 179.230769,14.9439427 179.392713,15.4916693 L181.376518,24.7948458 C181.773279,23.3069916 182.064777,22.2033634 182.242915,21.4757864 C183.122807,18.205777 183.624831,16.2982716 183.748988,15.75327 C183.878543,15.2137185 184.016194,14.5842417 184.17004,13.8648396 C184.304236,13.2660671 184.38017,12.6554904 184.396761,12.0418094 C184.454047,11.7272018 184.324325,11.407764 184.064777,11.2243071 C183.730306,11.0583531 183.37255,10.945307 183.004049,10.8891311 L183.004049,9.58112737 C183.398111,9.63017751 183.843455,9.67105263 184.340081,9.70375273 C184.834008,9.70375273 185.190283,9.76097789 185.40081,9.76097789 L186.744939,9.76097789 C187.206478,9.76097789 187.659919,9.76097789 188.097166,9.67922765 L188.097166,10.9136562 L187.854251,10.9136562 C187.214127,11.1075832 186.714501,11.6150895 186.526316,12.262535 L186.008097,14.2408907 L183.093117,24.9583463 C182.65587,26.4898007 182.22942,28.0294301 181.813765,29.5772345 C181.144399,31.5719402 180.383266,32.912644 179.530364,33.599346 C178.750626,34.2504357 177.772951,34.611209 176.761134,34.6212239 C175.774036,34.6438141 174.800498,34.3860508 173.951417,33.8772968 C173.064496,33.4288082 172.501485,32.5161706 172.493927,31.514715 C172.476654,30.8867078 172.655083,30.2690707 173.004049,29.74891 C173.316985,29.2615169 173.862546,28.9783338 174.437247,29.0049829 C175.007545,28.9639741 175.566069,29.182933 175.959514,29.6017596 C176.327094,30.0630256 176.511787,30.6457396 176.477733,31.2367642 C176.482197,31.4954547 176.441072,31.7528863 176.356275,31.9970414 C176.226345,32.3218167 176.072051,32.6361055 175.894737,32.9371691 C176.301404,33.0449138 176.721547,33.0917392 177.1417,33.0761445 C178.156545,33.0761445 179.020243,32.2858922 179.732794,30.7053877 C180.218843,29.4856873 180.624584,28.2349125 180.947368,26.961227 L177.522267,26.961227 C176.5722,23.0208658 175.624831,19.0641545 174.680162,15.0910931 C174.331984,13.4560884 174.137652,12.597711 174.089069,12.4832607 C173.724696,11.4450327 173.133603,10.9300062 172.323887,10.9300062 L172.323887,9.67922765 Z" id="Path"></path>
                <path d="M187.894737,21.1896605 L189.425101,21.1896605 C189.553016,22.3021401 189.856448,23.3867833 190.323887,24.4024447 C190.893817,25.3830713 191.97103,25.9459369 193.093117,25.8494239 C193.737946,25.8697847 194.370901,25.6711638 194.890688,25.2853472 C195.396936,24.9226397 195.686541,24.3255506 195.659919,23.6993927 C195.659919,22.6366397 195.012146,21.7782622 193.716599,21.1242604 L189.902834,19.1786048 C188.561357,18.1577907 187.80902,16.5314518 187.894737,14.8376674 C187.836415,13.2023465 188.624642,11.6540856 189.975709,10.7501557 C191.323854,9.87087265 192.906037,9.42873605 194.510121,9.48302709 C195.135766,9.47652891 195.761009,9.5175195 196.380567,9.60565244 C196.920378,9.68740268 197.624831,9.8345531 198.493927,10.0471037 L198.493927,14.3062909 L196.939271,14.3062909 C196.969587,13.4073447 196.659811,12.5304599 196.072874,11.8537839 C195.460868,11.2075881 194.601083,10.8615605 193.716599,10.9054812 C193.131562,10.8838885 192.557848,11.0721383 192.097166,11.4368577 C191.65958,11.7669866 191.408789,12.2916948 191.425101,12.8429617 C191.425101,13.660464 192.129555,14.3798661 193.538462,15.033868 C194.895398,15.6089135 196.203414,16.2951839 197.449393,17.0857988 C198.858694,18.2170663 199.644737,19.9623814 199.562753,21.7782622 C199.642236,23.3602589 198.997395,24.891413 197.813765,25.9311741 C196.572756,26.957428 195.003985,27.4921608 193.40081,27.4353784 C191.491683,27.4531004 189.605306,27.0161824 187.894737,26.1600747 L187.894737,21.1896605 Z" id="Path"></path>
            </g>
        </g>
    </g>
</svg>