<?xml version="1.0" encoding="utf-8"?>
<!-- Generator: Adobe Illustrator 23.0.1, SVG Export Plug-In . SVG Version: 6.00 Build 0)  -->
<svg version="1.1" id="Слой_1" xmlns="http://www.w3.org/2000/svg" xmlns:xlink="http://www.w3.org/1999/xlink" x="0px" y="0px"
	 viewBox="0 0 69 139" style="enable-background:new 0 0 69 139;" xml:space="preserve">
<style type="text/css">
	.st0{fill-rule:evenodd;clip-rule:evenodd;fill:#231F20;}
	.st1{filter:url(#Adobe_OpacityMaskFilter);}
	.st2{fill-rule:evenodd;clip-rule:evenodd;fill:#FFFFFF;}
	.st3{mask:url(#mask-2_1_);fill-rule:evenodd;clip-rule:evenodd;fill:#231F20;}
	.st4{fill-rule:evenodd;clip-rule:evenodd;fill:#EFD880;}
</style>
<title>Group 8 Copy 13</title>
<desc>Created with Sketch.</desc>
<g>
	<g id="desktop_quiz_end_1" transform="translate(-699.000000, -296.000000)">
		<g id="Group-6" transform="translate(479.000000, 297.000000)">
			<g id="Group-8-Copy-13" transform="translate(219.666667, 0.000000)">
				<path id="Fill-1" class="st0" d="M22,2.8c0.1,0,0.2,0,0.3,0l0,0C22.1,2.7,22,2.7,22,2.8L22,2.8z M24.2,3c0.2,0,0.5,0.1,0.5,0
					C24.5,3,24.2,3,24.2,3L24.2,3z M60.8,15C60.8,15,60.8,15.1,60.8,15c0.1,0.3,0.3,0.7,0.4,0.8C61.1,15.7,60.9,15.2,60.8,15
					L60.8,15z M61.4,16.4c0.2,0.5,0.3,0.7,0.5,1.1C62,17.4,61.5,16.4,61.4,16.4L61.4,16.4z M66.9,43.9c0-0.1-0.1,0.6,0,0.6
					C66.9,44.3,66.9,44.1,66.9,43.9L66.9,43.9z M66.9,44.7c-0.1,0.7-0.1,1.1-0.2,2C66.8,46.5,66.9,45,66.9,44.7L66.9,44.7z M65.4,53
					c-0.1,0.3-0.3,0.6-0.3,0.7C65.2,53.5,65.4,53.1,65.4,53L65.4,53z M64.6,54.5c0,0-0.5,0.6-0.5,0.7C64.3,54.9,64.5,54.6,64.6,54.5
					L64.6,54.5z M52.3,63.3l0.4-0.1C52.8,63.1,52.3,63.3,52.3,63.3L52.3,63.3z M37.1,72.9c0.1,0.6,0.3,1.8,0.4,2.2
					C37.4,74.3,37.3,73.5,37.1,72.9L37.1,72.9z M43.7,66.1c-0.2,0.1-0.5,0.1-0.6,0.2C43.4,66.3,43.6,66.2,43.7,66.1L43.7,66.1z
					 M59.2,60.2c-0.5,0.3-0.9,0.5-1.3,0.7C58,60.9,59.2,60.3,59.2,60.2L59.2,60.2z M40.5,67.1c0.1-0.1-0.4,0.1-0.6,0.1
					C39.9,67.3,40.4,67.1,40.5,67.1L40.5,67.1z M37.7,87.6c0-2.7,0-5.2,0-7.9c0-1.2,0-2.5-0.1-3.5c0,0.5,0,0.7,0,1c0,1,0,1.8,0,2.7
					c0,1.3,0,2.7,0,4c0,1.5-0.1,3,0,4.1C37.7,87.8,37.7,87.7,37.7,87.6L37.7,87.6z M57.2,61.3c-0.6,0.3-1.4,0.7-2.7,1.4
					C55.2,62.5,56.6,61.7,57.2,61.3L57.2,61.3z M37.8,78.5c0,0.3,0,0.5,0,0.7C37.8,79,37.8,78.6,37.8,78.5L37.8,78.5z M37.4,73.2
					c0,0.3,0.1,0.7,0.1,0.7C37.5,73.7,37.4,73.2,37.4,73.2L37.4,73.2z M37.9,80.4c0,0.5,0,0.9-0.1,1.1c0,1.2,0,2.2,0.1,2.9
					C37.9,83.1,37.9,81.4,37.9,80.4L37.9,80.4z M37.9,85L37.9,85c-0.1,0.4-0.1,0.8-0.1,1.2c0-0.3,0,0,0.1,0.2
					C37.9,86,37.9,85.3,37.9,85L37.9,85z M37.9,87c0,0,0,0.7,0,0.8C37.9,87.5,37.9,87.3,37.9,87L37.9,87z M37.9,88.1
					c-0.1,0.3-0.1,1.3-0.1,2.1c0,0,0-0.2,0.1-0.1C37.9,89.4,37.9,88.6,37.9,88.1L37.9,88.1z M39.7,67.6l-0.6,0.2
					c-0.2,0.1-0.4,0-0.8,0.3c-0.7,0.5-0.8,1.2-0.8,1.5c0.1-0.5,0.4-1.3,1.2-1.6C39.1,67.8,39.4,67.7,39.7,67.6L39.7,67.6z
					 M37.4,69.8c-0.1,1,0,2,0.1,2.6C37.4,71.5,37.4,70.2,37.4,69.8L37.4,69.8z M37.6,73c0,0.4,0.2,1.2,0.3,1.5
					C37.8,74.2,37.7,73.2,37.6,73L37.6,73z M38,75.1c0,0.2,0.1,0.7,0.1,0.8C38.1,75.6,38,75.2,38,75.1L38,75.1z M38.1,78.7v0.6
					C38.2,79.4,38.2,78.7,38.1,78.7L38.1,78.7z M37.9,107.9c0-0.2-0.1,0.2-0.1,0.4c0,1,0,2.7,0.1,3.1
					C38,110.2,37.9,108.9,37.9,107.9L37.9,107.9z M38.1,80.6c0,0.5,0,1.1,0,1.4C38.1,81.4,38.2,80.8,38.1,80.6L38.1,80.6z
					 M38.1,115.2c0,0.3,0,0.6,0.1,0.6C38.1,115.6,38.1,115.2,38.1,115.2L38.1,115.2z M38.1,82.4c0,0.5,0,1.5,0,1.9
					C38.1,83.9,38.2,82.9,38.1,82.4L38.1,82.4z M38.1,84.5c0,0.1,0,0.4,0,0.4c0-0.1,0-0.8,0-0.8c0,2.4,0,4.8,0,7.1
					c0.1-0.2,0-1.5,0.1-2.1c0,0.1,0,0.9,0,0.9C38.1,88.1,38.2,86,38.1,84.5L38.1,84.5z M38.1,90.2c0,0.4,0,1.2,0,1.5
					C38.1,91.2,38.1,90.4,38.1,90.2L38.1,90.2z M38.5,121.7c0,0.5,0.1,1.4,0.2,1.8C38.7,123,38.6,122,38.5,121.7L38.5,121.7z
					 M38.1,92.4c0,1,0,2.2,0,2.8C38.1,94.4,38.1,93,38.1,92.4L38.1,92.4z M38.1,96.3c0,0.2,0,0.6,0,0.6
					C38.1,96.7,38.1,96.3,38.1,96.3L38.1,96.3z M38.1,97.3c0,0.5,0,1,0,1.4C38.1,98.2,38.1,97.6,38.1,97.3L38.1,97.3z M38.2,108.3
					c0-1.5,0-3.2-0.1-4.5c-0.1,1.1,0,3,0,4.1c0,0.2,0,0.5,0.1,0.7c0,0.3,0,0.7,0,0.8C38.2,109.2,38.2,108.7,38.2,108.3L38.2,108.3z
					 M38.7,120.4C38.7,120.4,38.7,120.4,38.7,120.4c0,0.4,0,0.6,0.1,0.7C38.7,120.9,38.7,120.5,38.7,120.4L38.7,120.4z M38.8,121.6
					c0,0.2,0.1,0.9,0.1,0.8C38.8,122.1,38.8,121.7,38.8,121.6L38.8,121.6z M63.5,15.6c0,0.1,0.5,1.2,0.6,1.3
					C63.9,16.5,63.6,15.8,63.5,15.6L63.5,15.6z M62,12c0.1,0.2,0.4,0.8,0.5,0.9C62.3,12.6,62.1,12.1,62,12L62,12z M63.1,14
					c0,0,0.3,0.5,0.4,0.8c0.3,0.5,0.5,1,0.9,1.8C63.9,15.7,63.5,14.8,63.1,14L63.1,14z M64.4,16.8c0.1,0.2,0.3,0.8,0.4,0.8
					C64.6,17.3,64.5,16.9,64.4,16.8L64.4,16.8z M65.6,19.6c-0.1,0,0.1,0.3,0.1,0.5C65.8,20,65.7,19.8,65.6,19.6L65.6,19.6z
					 M66.2,21.1c0-0.1,0.2,0.7,0.2,0.7C66.4,21.7,66.2,21.2,66.2,21.1L66.2,21.1z M64.3,58.7c0,0-0.4,0.4-0.5,0.5
					C63.9,59.1,64.2,58.9,64.3,58.7L64.3,58.7z M39.8,78.9c0,0.6,0,1.3,0,1.6C39.8,80.1,39.8,79.1,39.8,78.9L39.8,78.9z M39.8,83.6
					c0,0.4,0,0.8,0,1C39.8,84.1,39.8,83.9,39.8,83.6L39.8,83.6z M47.2,67.4l0.4-0.1C47.8,67.2,47.1,67.4,47.2,67.4L47.2,67.4z
					 M46.1,67.7c0.2,0,0.3-0.1,0.4-0.1C46.6,67.6,46,67.7,46.1,67.7L46.1,67.7z M43.6,68.4c-0.1,0-0.4,0.1-0.4,0.1
					C43.3,68.6,43.6,68.5,43.6,68.4L43.6,68.4z M39.8,89.9c0,0.2,0,0.6,0,1C39.8,91,39.8,89.9,39.8,89.9L39.8,89.9z M42.6,68.7
					c-0.9,0.3-1.9,0.5-2.3,0.7C41.2,69.2,42.1,68.9,42.6,68.7L42.6,68.7z M39.5,69.6c0-0.1-0.2,0.6-0.1,0.3
					C39.4,69.8,39.5,69.5,39.5,69.6L39.5,69.6z M39.8,96.8c-0.1,0.5,0,1.8,0,2.4C39.8,98.6,39.8,97.6,39.8,96.8L39.8,96.8z
					 M39.8,94.7c0-0.1,0-0.2,0-0.3c0-1.1,0-2.6-0.1-3.1c0,1.3,0,2.7,0,3.6c0,0.4,0,1,0,1.2C39.8,95.5,39.8,95.2,39.8,94.7L39.8,94.7
					z M39.7,73.9c0,0.1,0.1,0.6,0.1,0.6C39.8,74.2,39.8,74,39.7,73.9L39.7,73.9z M39.9,75.2c0.1,0.6,0.1,1.2,0.1,1.6
					C40,76.6,40,75.3,39.9,75.2L39.9,75.2z M40.1,80.9c0,0.4,0,1.3,0,1.5C40.1,81.9,40.1,81.1,40.1,80.9L40.1,80.9z M40.1,84.7
					c0-0.1,0,0.4,0,0.6C40.1,85.3,40.1,84.9,40.1,84.7L40.1,84.7z M40.1,86.5c0,0.1,0,0.5,0,0.5C40.1,86.8,40.1,86.5,40.1,86.5
					L40.1,86.5z M40.1,89.2c0,0,0,0.7,0,0.7C40.1,89.7,40.1,89.4,40.1,89.2L40.1,89.2z M40,92.1c0,0.1,0,0.5,0,0.5
					C40,92.4,40.1,92.1,40,92.1L40,92.1z M40,93.3c0-0.1,0,0.6,0,0.6C40,93.7,40.1,93.5,40,93.3L40,93.3z M40,94.3
					c0,0.2,0,0.6,0,0.7C40.1,94.8,40,94.4,40,94.3L40,94.3z M40,97.9c0-0.1,0,0.6,0,0.7C40.1,98.4,40,98.1,40,97.9L40,97.9z
					 M40,99.3l0,0.7C40,100,40.1,99.3,40,99.3L40,99.3z M40.1,103.6c0-0.1,0,0.6,0,0.5C40.1,103.8,40.1,103.7,40.1,103.6L40.1,103.6
					z M40.1,105.9c0,0,0,1.1,0,1.1C40.1,106.7,40.1,106.3,40.1,105.9L40.1,105.9z M40.1,109.4c0,0.4,0,0.8,0,1.3
					c0,1.1,0,2.5,0.1,3.2C40.2,112.6,40.2,110.9,40.1,109.4L40.1,109.4z M56.5,129c-0.4-0.1-0.3,0-0.5,0c-0.4-0.1-1.1-0.2-1.2-0.2
					c-1.7-0.3-3.4-0.3-4.9-0.5c-0.8-0.1-1.4-0.2-2.3-0.3c-0.9-0.1-1.7-0.2-2.5-0.2c-0.3,0-0.3,0-0.6,0c-0.5,0-1.1-0.1-1.6-0.2
					c-0.5-0.1-1.2-0.4-1.1-0.4c-0.1-0.1-0.3-0.7-0.4-1.3c-0.1-0.6-0.2-1.1-0.3-1.7c0-0.3-0.1-0.7-0.2-1c0,0.3,0.2,1.5,0.2,1.9
					c0.3,1,0.5,2.3,0.9,2.2c0.1,0.1-0.1,0-0.2,0c0.3,0.2,0.9,0.3,1.4,0.5c-0.7-0.1-1.5-0.4-1.6-0.4c0,0-0.3-0.7-0.5-1.3
					c-0.2-0.6-0.3-1.2-0.4-1.9c-0.2-1.1-0.4-2.9-0.4-4.1c-0.2-1.7-0.3-4.6-0.4-6.6c-0.1-0.7-0.1-1.8-0.1-3.1c0-0.9-0.1-1.7-0.1-2.5
					c0-0.7,0-1.7,0-2.6c0.1-0.9,0-1.9,0-2.9c0-0.6,0-1.5,0-2.2c0,0.6,0,1.5,0,2.3v3.8c0,1.1,0.1,2.3,0,3.1c0.1,3.6,0.2,8.2,0.6,12.2
					c0,0.5,0,0,0,0.4c0,0.7,0.2,1.9,0.3,2.2c0-0.5-0.2-1-0.2-1.4c0.1,0.7,0.3,1.9,0.3,2.3c0.2,0.7,0.3,1.5,0.6,1.9
					c0,0.2,0.1,0.1,0.1,0.2c0.1,0,0.2,0.1,0.4,0.2c0.3,0.1,0.6,0.2,0.9,0.3c0.5,0.1,1,0.2,1.8,0.3c0.9,0.1,1.7,0.1,2.6,0.3
					c1,0.2,1.6,0.3,2.5,0.4c1.7,0.2,3.4,0.2,5.4,0.5c0.4,0.1,1,0.2,1.9,0.5c0.2,0.1,0.4,0.2,0.2,0.2c0,0.1,0.9,0.5,0.3,0.2
					c1.3,0.8,0.7,0.7,1.4,1.8c-0.3-0.3,0,0.3-0.1,0.3c0,0-0.1-0.1-0.1-0.1c0,0.2,0.1,1.4-0.3,0.4c0,0.1-0.1,0.2,0,0.5
					c0,0.1-0.1-0.2-0.1-0.3c0,0.5-0.1,0.3-0.3,0.8c-0.1,0-0.1-0.1-0.1-0.2c0.1-0.2-0.1-0.7-0.4-1c-0.3-0.3-0.9-0.6-1.7-0.7
					c-1.8-0.4-3.6-0.5-5.7-0.7c-1-0.1-2.1-0.2-3-0.4c-0.8-0.1-1.8-0.2-2.9-0.3c-0.7-0.1-1.4-0.2-2.2-0.4c-0.4-0.1-0.8-0.2-1.2-0.4
					c-0.2-0.1-0.4-0.2-0.6-0.4c-0.3-0.2-0.6-0.6-0.7-0.8c-0.4-0.8-0.6-1.3-0.7-2c-0.1-0.3-0.1-0.5-0.2-0.8c-0.2-1-0.4-2-0.5-3
					c-0.2-1.8-0.4-3.9-0.4-5.4c0-1.1-0.1-2.5-0.2-3.9c0-1.7-0.1-4.1-0.2-6.1c0-1.4,0-3.9,0-5.7c0-2.6,0-4.8,0-7.4c0-1.1,0-2.2,0-3.4
					c0-2.9,0-5.4,0.1-8.4c-0.1-2.7,0.1-5.6-0.3-8c-0.2-1-0.3-2-0.4-3.1c0-0.6,0-1.2,0.1-1.9c0.1-0.4,0.2-0.8,0.5-1.2
					c0.2-0.2,0.3-0.5,0.6-0.6c0.3-0.2,0.6-0.3,0.7-0.3c4-1.2,8.2-2.2,12.1-3.7c2-0.7,3.8-1.4,5.6-2.4l2.7-1.5c0.8-0.4,1.5-1,2.2-1.7
					c0.7-0.6,1.4-1.4,2-2.1c0.7-0.8,1.3-1.5,1.7-2.2c0.8-1.5,1.2-3.4,1.4-5.4c0.2-2,0.4-4.3,0.5-6.4c0-0.7,0-1.4,0-2.2
					c0-3.8-0.5-7.8-1.4-11.7c-1-4.3-2.7-8.8-5-13.2c-0.9-1.8-2-3.7-3.1-5.6l-1.7-2.9L55,5c-0.3-0.5-0.6-1-0.7-1.2
					c-0.2-0.1,0-0.1-0.3-0.1c-0.3,0-0.9-0.1-1.4-0.1c-1,0-2.1,0-3.2,0c-1.5,0.1-3,0.2-4.5,0.4c-0.6,0.1-1.3,0.1-1.9,0.2
					c-3,0.4-7.2,0.6-10.4,0.2c-2.2-0.2-4.2-0.7-6.2-1c-2-0.3-4-0.6-6-0.7c0.6,0,1.3,0.1,1.7,0c2,0.2,3.9,0.5,5.3,0.8
					c0,0-0.4-0.1-0.4,0c1.7,0.3,4.5,0.9,6.1,0.9c0.8,0.1,2.3,0.2,3.3,0.2c0,0-0.6,0-0.7-0.1c1.7,0,2.6-0.1,4.1-0.1
					c2.4-0.3,6.4-0.7,9-0.8c0.5,0,0.9,0,1.4-0.1c0.6,0,1.4,0,1.9,0c0.7,0,1.6,0,2.1,0c0.4,0.1,0.2,0,0.6,0.4l1,1.7
					c1.2,2,2.4,4,3.5,6.1c0.8,1.5,1.6,3,2.2,4.4c0.8,1.6,1.6,3.5,2.2,4.9c0.1,0.2,0.2,0.5,0.3,0.8c0.3,0.7,0.6,1.5,0.8,2.3
					c0.2,0.7,0.5,1.5,0.6,2.1c0,0.1-0.2-0.7-0.3-0.9c1.6,5.6,2.4,12.1,2,18.1c0,0.4,0.1-0.2,0.1,0.1c-0.2,2.3-0.3,5.3-0.9,7.8
					c-0.1,0.3-0.1,0.3-0.2,0.3c-0.1,0.3-0.2,0.5-0.3,0.8c-0.1,0.3,0.1-0.4,0.1-0.1C65.5,53,65.3,53.5,65,54c-0.4,0.7-1.3,1.7-2,2.4
					c-1.1,1.2-2.3,2.3-3.6,3.2c-1.4,0.8-3.1,1.7-4.6,2.5c-3.1,1.4-6.6,2.6-9.8,3.5c-1.3,0.4-2.9,0.8-4,1.2c-0.5,0.1-1,0.3-1.6,0.4
					l-0.9,0.2c-0.5,0.2-1.2,0.8-1.3,1.2c-0.6,1.8-0.2,2.9-0.2,3.9c0-0.6-0.1-1.5-0.1-2.3c0-0.5,0.1-0.9,0.3-1.5
					c0.1-0.3,0.3-0.6,0.6-0.9c0.2-0.1,0.4-0.2,0.6-0.3l0.3-0.1c0.7-0.2,1.4-0.4,2.2-0.6c1.4-0.4,2.9-0.8,4.4-1.3
					c2-0.5,3.9-1.2,5.8-1.9c1.9-0.7,3.7-1.4,5.4-2.4c1.4-0.8,2.9-1.5,4-2.4c1.2-0.9,2.3-2.1,3.3-3.3c2.1-2.2,2.6-5.3,2.9-8.5
					c0.3-3.1,0.5-6.5,0.3-9.7c0,0.5,0.1,1.2,0.1,1.8c0.1,2.4-0.1,4.7-0.3,7.1c-0.2,2.4-0.5,4.8-1.3,6.8c-0.4,1-1.1,1.8-1.9,2.8
					c-0.8,0.9-1.6,1.8-2.5,2.5c-0.9,0.8-1.7,1.3-2.8,1.9c-1.1,0.6-2.1,1.2-3.2,1.7c-0.9,0.4-2.3,1-2.5,1.2c-0.4,0.2-0.9,0.3-0.8,0.3
					c-1.7,0.6-3.6,1.3-5.4,1.8c0,0.1-0.6,0.2-0.9,0.3c4.3-1.2,8.3-2.6,12-4.7c2-1,3.5-2.1,4.9-3.6c0.7-0.7,1.4-1.5,2-2.4
					c0.6-0.7,1-1.6,1.4-2.5c0.2-0.3,0.5-1.3,0.5-1.6c0.3-1.1,0.4-2.7,0.6-3.6c0-0.9,0.2-3.1,0.3-4.6c0.1-0.4,0.1-2.4,0.1-3.8
					c0.1,0.5,0.1,1.3,0,2c0,1.2-0.1,2.3-0.2,3.6c0,0.3,0,0.4,0,0.6c-0.1,0.5-0.1,0.7-0.1,1.1c0.1-0.6,0.1-0.7,0.1-1.2
					c0,0.9-0.1,2.3-0.3,3.6c0-0.6,0.1-1.6,0.2-2.2c-0.1,0.1-0.1,0.7-0.1,1c-0.1,0.8-0.2,1.6-0.3,2.4c-0.1,0.5-0.2,0.8-0.3,1.3
					c-0.2,0.9-0.6,2-1,2.8c-0.1,0.2-0.2,0.3-0.3,0.5c-0.4,0.7-1.2,1.5-1.7,2.2c0.1,0,0.4-0.5,0.4-0.4c-0.9,1.1-2.1,2.3-3.2,3.2
					c0.2-0.2,1.2-0.9,1.2-1.1c-0.7,0.6-1.7,1.4-2.5,1.9c0,0.1,0.8-0.5,1-0.6c-1.5,1.1-3.6,2.1-5.6,3.1c-0.2,0.1-0.7,0.3-1,0.5
					c-2.5,1-5.4,2-8,2.8c0.8-0.2,0.8-0.2,1.6-0.4c3-1,6.2-2,9.1-3.6c1.5-0.8,3-1.5,4.2-2.5c1.3-1,2.4-2.1,3.4-3.3
					c0.7-0.9,1.4-1.7,1.9-2.8c0.5-1.1,0.7-2.2,0.9-3.3c0.4-2.8,0.6-5.9,0.7-8.7c0-1.3,0-2.6-0.1-3.9c0-0.6-0.1-1.3-0.1-1.8
					c-0.2-2.3-0.6-4.5-1.1-6.8c-0.1-0.3-0.2-0.8-0.2-1.1c-0.2-0.6-0.4-1.5-0.6-2.1c-0.1-0.4-0.3-0.9-0.4-1.4
					c-0.2-0.6-0.4-1.3-0.7-1.9c-0.3-0.7-0.5-1.5-0.8-2.2c-1-2.3-2.3-5.1-3.7-7.7c-0.2-0.3-0.4-0.7-0.6-1.1c-0.4-0.6-0.7-1.3-1.1-2
					c-0.3-0.5-0.5-0.8-0.9-1.5c-0.5-0.8-1-1.6-1.4-2.4c-0.2-0.3-0.5-0.8-0.6-1c-0.3-0.5-0.6-1-0.9-1.1c-0.3-0.1-1.2-0.1-1.8-0.2
					c-0.3,0-0.8,0-1.1,0c-3.2,0-6.7,0.4-10.2,0.8c-1,0.1-2,0.2-3,0.2C36,4,33.6,3.9,31.3,3.5c-3.4-0.6-7.1-1.3-10.8-1.6
					c-0.6,0-0.9-0.1-1.6-0.1c-0.2,0-0.5-0.1-0.8-0.1c-0.4,0-1-0.1-1.1-0.1c0.4,0,0.8,0,0.9,0c0-0.1-0.5-0.1-0.7-0.1
					c0.5,0,0.5,0,0.8,0c-0.1,0-0.4,0-0.5-0.1c-0.1-0.1,0.3,0,0.3-0.1c0,0-0.5-0.1-0.5-0.1c0-0.1,0.3-0.2,0.6-0.2
					c0.1,0-0.4,0-0.5-0.1c0.6-0.1,0.5-0.2,1.2-0.2c-0.2,0-0.3-0.1-0.5-0.1c0.2,0,0.4-0.1,0.8-0.1c0,0-0.4,0-0.4-0.1
					c0.3-0.1,0.8-0.1,0.8-0.2c0.4,0,1.1,0,1.5,0.1c-0.4-0.1-1.2-0.1-1.6-0.2c0.4-0.1,2,0.1,2.5,0.1c-0.4-0.1-1.2-0.1-1.8-0.2
					c-0.6-0.1-0.7-0.2-0.9-0.2c0.5,0,0.4-0.1,1.3,0c0.1,0-0.2-0.1,0-0.1c0.5,0,0.9,0.1,1.5,0.1c2.7,0.3,5.4,0.7,8,1.2
					c0.7,0.1,1.3,0.2,2.1,0.3c3,0.4,6.3,0.5,9.3,0.1c0.3,0,0.9-0.1,1.3-0.2c1.5-0.2,3.2-0.3,5-0.5c1.9-0.1,3.7-0.2,5.5-0.1
					c0.4,0,0.9,0,1.5,0.1c0.6,0.1,1.4,0.5,1.8,0.9c0.9,1,1.1,1.6,1.5,2.3c0.1,0.2,0.3,0.4,0.4,0.6c0.4,0.7,0.7,1.3,1.1,1.8
					c2,3.5,4.3,7.7,5.8,11.2c0.2,0.4-0.1,0,0,0.2c0.2,0.6,0.1,0.1,0.2,0.4c0.7,1.8,1.5,3.6,2,5.5c0.4,1.3,0.9,3.2,1.3,5
					c0.6,3.1,1,6.4,1.2,9.4c0,0.9,0,1.2,0,2.8c0,0.3,0,0.3,0,0.6c-0.1,2.7-0.3,5.2-0.6,8c-0.2,1.4-0.5,2.8-1.1,4.2
					c-0.5,1.4-1.5,2.8-2.4,3.7c-1.1,1.3-2.3,2.6-3.7,3.7c-1.6,1.2-3.1,1.8-4.7,2.7c-4.2,2.2-8.8,3.5-13,4.7
					c-0.3,0.1-0.4,0.1-0.6,0.2c-0.6,0.2-1.1,0.3-1.7,0.4c-0.4,0.1-0.1,0-0.4,0.1c-0.5,0.1-0.8,0.2-0.9,0.3L39.6,70l-0.1,0l0,0v0h0
					l-0.2-0.6v0h0l0,0l0,0c0,0,0.1,0.1,0.1,0.1c0.1,0.1,0.5,0.3,0.4,0.2c-0.1,0.2-0.1,1,0,1.7c0.1,0.7,0.2,1.5,0.3,2.4l0.2,1.3
					c0.1,0.5,0.1,1,0.1,1.4l0,2.6c0,3.4,0,6.8,0,10.3c0,2.1,0,4.3,0,6.5c0,1.6,0,3.4,0,4.9c0,1.1,0,2.2,0,3.2c0,3.3,0.1,6.8,0.2,9.7
					c0,0.3,0.1,0.8,0.1,1.1c0.1,1.2,0.1,2.6,0.2,3.9c0.1,1.7,0.3,3.3,0.4,4.5c0,0.2,0.1,0.6,0.1,0.8c0.1,0.8,0.3,1.8,0.6,2.5
					l0.1,0.3c0.1-0.1-0.2,0.1-0.3,0.2c-0.1,0.1-0.3,0.3-0.4,0.4l0,0.1l0,0l0,0c0.3-0.4-0.6,0.8,0.6-0.8h0l0,0l0,0l0,0l0.1,0
					c0.2,0.1,0.5,0.2,0.9,0.3c1.5,0.4,3.3,0.2,5.3,0.6c0.6,0.1,1.3,0.2,2,0.3c0.3,0,0.8,0.1,1.1,0.1c0.3,0,0.8,0.1,1.1,0.1
					C53.7,128.5,55.1,128.6,56.5,129L56.5,129z M44.8,3.6c0.2,0,0.6-0.1,0.9-0.1C45.5,3.6,45.1,3.6,44.8,3.6L44.8,3.6z M44.5,3.6
					c-0.4,0.1-1.2,0.1-2.1,0.2C42.8,3.8,44.1,3.7,44.5,3.6L44.5,3.6z M46.8,3.4c-0.5,0-0.6,0.1-1,0.1C46,3.4,46.5,3.4,46.8,3.4
					L46.8,3.4z M65.5,27.1L65.5,27.1c-0.1-0.3-0.1-0.3-0.2-0.7C65.3,26.4,65.4,26.7,65.5,27.1L65.5,27.1z M55.7,5.4
					c-0.1-0.1-0.4-0.6-0.4-0.6C55.4,4.9,55.6,5.2,55.7,5.4L55.7,5.4z M65.9,29.1l0.1,0.5C66,29.7,65.9,29.1,65.9,29.1L65.9,29.1z
					 M55,4.1c0,0,0.1,0.2,0.1,0.3c-0.1-0.2-0.2-0.3-0.3-0.5C54.8,3.8,54.9,4,55,4.1L55,4.1z M44.3,3.6c0.1,0,0.4,0,0.5-0.1
					C44.6,3.5,44.4,3.5,44.3,3.6L44.3,3.6z M45.2,3.4C45.3,3.4,45.1,3.5,45.2,3.4c-0.8,0.2-1.3,0.2-2.2,0.3c0.1,0-0.2,0-0.1-0.1
					C43.7,3.6,44.4,3.5,45.2,3.4L45.2,3.4z M55.7,5.2c0,0-0.2-0.3-0.3-0.4C55.5,4.9,55.6,5,55.7,5.2L55.7,5.2z M57.1,7.6
					c0,0,0.3,0.5,0.2,0.4C57.3,7.9,57.2,7.8,57.1,7.6L57.1,7.6z M67.1,40.5l0,0.4C67.1,40.9,67.1,40.4,67.1,40.5L67.1,40.5z
					 M65.5,26.8c-0.4-1.4-0.4-1.5-0.6-2c-1.1-3.5-2.6-7.1-4.4-10.5c-1.1-2.1-2.2-4-3.4-6c-0.6-1-1.2-2-1.8-3
					c-0.3-0.5-0.6-1.1-0.9-1.4c-0.3-0.3-0.2-0.2-0.5-0.3c-2.9-0.2-6.4,0-9.5,0.3c-3.2,0.3-6.6,0.8-9.8,0.5c-2.4-0.1-5-0.6-7.3-1
					c-2.3-0.4-4.7-0.7-7.2-0.9c0.9,0,2.5,0.2,4.1,0.4c2,0.3,4,0.6,5.4,0.9c1.8,0.3,4.4,0.6,6,0.6c2.8,0.1,5.6-0.2,8.2-0.5
					c2.7-0.3,5.3-0.5,7.9-0.5c0.6,0,1.3,0,1.9,0c0.6,0.1,0.6,0.1,0.8,0.3c0.2,0.2,0.6,0.9,0.9,1.4l1,1.7c1.3,2.2,2.6,4.5,3.8,6.7
					c2.2,4.2,3.9,8,5.2,12.6C65.4,26.3,65.5,26.6,65.5,26.8L65.5,26.8z M62.6,18.1c-0.1-0.1-0.2-0.5-0.3-0.7
					C62.4,17.5,62.5,17.9,62.6,18.1L62.6,18.1z M59.2,11.2C59.1,11.2,58.9,10.8,59.2,11.2c-1.3-2-2-3.3-3.2-5.4
					C56,5.9,56.2,6.2,56.2,6c0.3,0.5,0.6,1,0.9,1.5c0.1,0.2-0.1-0.2-0.1,0c0.2,0.3,0.3,0.5,0.4,0.6c0.1,0.2,0-0.1,0.1,0.1l0.3,0.5
					c-0.1-0.1-0.1-0.1-0.1,0c0.2,0.3,0.3,0.5,0.5,0.8C58.1,9.2,59,10.8,59.2,11.2L59.2,11.2z M67.1,42.3c0,0.1,0,0.2,0,0.2l0,0
					c0-0.1,0-0.4,0-0.5C67.1,42,67.1,42.2,67.1,42.3L67.1,42.3z M64,21.6c-0.1-0.1-0.2-0.6-0.3-0.7C63.8,20.9,64,21.4,64,21.6
					L64,21.6z M67,35.2c-0.2-1.1-0.3-2.8-0.6-4.4c-0.2-1.4-0.6-2.9-0.8-3.7c0.3,0.9,0.6,2.4,0.8,3.8C66.7,32.3,66.9,33.7,67,35.2
					L67,35.2z M67.4,39.9c0,0,0-0.3,0-0.5C67.4,39.5,67.4,39.7,67.4,39.9L67.4,39.9z M67.5,43.5c0,0.4,0,0.8-0.1,1.2
					C67.4,44.6,67.5,43.6,67.5,43.5L67.5,43.5z"/>
				<g id="Group-5" transform="translate(1.000000, 3.717949)">
					<g id="Clip-4">
					</g>
					<defs>
						<filter id="Adobe_OpacityMaskFilter" filterUnits="userSpaceOnUse" x="-1" y="0.1" width="56.8" height="133.8">
							<feColorMatrix  type="matrix" values="1 0 0 0 0  0 1 0 0 0  0 0 1 0 0  0 0 0 1 0"/>
						</filter>
					</defs>
					<mask maskUnits="userSpaceOnUse" x="-1" y="0.1" width="56.8" height="133.8" id="mask-2_1_">
						<g class="st1">
							<polygon id="path-1_1_" class="st2" points="-1,0.1 55.8,0.1 55.8,133.9 -1,133.9 							"/>
						</g>
					</mask>
					<path id="Fill-3" class="st3" d="M2.6,48.3C3,49.7,4.1,52.1,5,53.4c0,0.1,0.1,0.1,0.1,0.1C4.2,52,3.1,49.6,2.6,48.3 M5.8,54.6
						c0.1,0.2,0.4,0.6,0.6,0.8C6.4,55.4,5.8,54.6,5.8,54.6 M17.2,130.4c0.1,0.1,1.9,0.1,2.1,0C18.7,130.4,18,130.4,17.2,130.4
						 M20.1,130.4c0.2,0,0.9,0,1,0C20.8,130.4,20.2,130.4,20.1,130.4 M16.9,0.4c-0.5,0.7-1.4,1.7-2.2,2.8c-0.4,0.6-0.8,1.2-1.2,1.7
						c-0.7,1-1.3,2-1.9,3.1c-1.3,2.5-2.6,5.3-3.6,7.9c-1.6,3.8-3,7.5-4,11.3c-1.2,4.5-1.7,9.1-1.3,13.7c0.4,3.7,1.2,7.3,3.2,10.8
						c1.5,2.7,3.7,5,6.2,6.9c4.8,3.6,10.7,5.3,16.6,5.8c0.5,0.1,0.9,0.1,1.5,0.3l0.3,0.1c0.1,0.1,0.3,0.2,0.4,0.2
						c0.2,0.1,0.3,0.2,0.4,0.3c0.3,0.2,0.6,0.6,0.8,0.9c0.8,1.4,0.7,2.4,0.8,3.2c0.1,1.7,0.1,3.4,0.2,5.1c0.1,3.4,0.2,6.7,0.3,10
						c0,1.2,0.1,2.6,0.1,3.8c0.1,5.3,0.2,10.9,0.4,16.3c0,4.3,0,8.5,0.1,12.9c0,1.1,0,2.1-0.1,3.5c-0.2,1.4-0.4,2.3-0.9,3.7
						c-0.5,1.3-1.7,2.7-3,3.3c-0.3,0.2-0.6,0.3-1,0.5c-0.4,0.2-0.8,0.3-1.1,0.3c-0.7,0.2-1.3,0.2-1.9,0.3c-3.1,0.4-6.2,0.4-9.2,0.5
						l-4.4,0.1c-0.7,0-1.2,0.1-1.6,0.2c-0.4,0.2-0.4,0.2-0.5,0.5c-0.1,0.2,0,0.1-0.1,0l-1.5-0.7c3.2,0.1,6.4,0.1,9.5,0.2
						c3.8,0,7.6,0.1,11.4,0.1c1.8,0,3.7,0,5.5,0.1c3.7,0,7.5,0.1,11.4,0.2c1.8,0,3.5,0.1,5.2,0.1l0.2,0l0,0c0.2,0,0.6,0,0.8,0
						c0.5,0,1.1-0.1,1.2-0.2c0,0-0.1,0.1-0.2,0.2c0,0.1,0,0.1,0,0c0.1-0.2,0.1,0.1,0.2,0c0,0.1,0.1,0,0.1,0c0.1,0.1,0.3,0.1,0.2,0.3
						c0.2-0.1,0.2,0,0.3,0.1c0,0.1,0.2,0,0.2,0.1c0.1,0.1,0,0.2,0,0.4c0,0.1-0.2,0.2-0.2,0.3c-0.1,0.3,1-0.2,0.9,0.1
						c0,0.1-0.5,0.5-0.5,0.6c0,0,0.4-0.1,0.5-0.1c0.2,0.1-0.7,0.8-0.5,0.8c0.1,0,0.5-0.1,0.6-0.1c0.3,0-0.1,0.4-0.9,0.7
						c-0.8,0.3-1.8,0.4-3.2,0.3l0.2,0c-2.2,0-5.2-0.1-7.9-0.1c-2.7,0-6-0.1-9.3-0.1c-1,0-2,0-2.9,0c-2.4,0-4.5-0.1-6.4-0.1
						c-0.4,0-1.2,0-1.5,0c-1.5,0-3.4-0.1-5.1-0.1c-3.2-0.1-6.7-0.1-10.2-0.2l-0.2,0c-0.5,0-1-0.3-1.2-0.7c-1.8-3,0.8-5.6,2.7-6.1
						c2.1-0.5,3.4-0.3,4.9-0.4c3-0.1,5.9,0,8.5-0.2c1.6-0.1,3.5-0.3,4.3-0.7c1.2-0.6,1.7-1.2,2.1-2.6c0.1-0.3,0.1-0.5,0.2-0.8
						l0.1-0.4l0-0.2l0-0.1l0-0.1l0,0v0v0l0.6,0.1l-0.1,0l-0.3-0.1c-0.3-0.1-0.1,0-0.2-0.1v0l0,0l0-0.1l0-0.2l0-0.3
						c0-0.3,0-0.6,0-0.9c0.1-1.4,0-2.9,0-4.4c0-2.5,0-4.9,0-7.4c-0.1-3.8-0.1-7.5-0.2-11.2c-0.1-2.6-0.1-5.4-0.2-8.3
						c-0.1-1.6-0.1-3.4-0.2-5c-0.1-3.3-0.2-6.8-0.3-10.4L29.4,70c0-0.8-0.2-1.8-0.3-1.8c0,0,0-0.1-0.1-0.1l0,0l0,0l0,0l0,0
						c-0.1,0.2,1.2-1.8,0.6-0.9c-0.1,0.1-0.2,0.2-0.2,0.4c-0.4,0.8-0.3,0.6-0.3,0.6c-0.2-0.1-0.7-0.1-1.1-0.2
						c-0.8-0.1-1.9-0.2-2.8-0.3c-4.1-0.6-8.3-2-11.9-4c-4.4-2.4-8.6-6.3-11.1-11.3c-2.7-5.4-3.5-11.6-3.1-17.5
						c0.6-8.5,4.2-17.4,7.4-24.5c0.7-1.5,1.4-3,2.2-4.3c0.7-1.3,1.6-2.9,2.7-4.2C11.5,1.5,11.2,2,11.2,2c0,0,0.5-0.5,0.5-0.4
						c0.1,0-0.1,0.3-0.2,0.5c-0.1,0.2,0,0.3-0.2,0.6c1.6-2.1,1.3-1.1,1.5-1.1c0,0.1,0.4-0.5,0.4-0.4c-0.2,0.4,0.5-0.3,0.6-0.3
						c0,0-0.1,0.3-0.1,0.4c0,0.2,0.3-0.1-0.2,0.6c0.4-0.3,1-0.9,1.2-1c0.1,0,0,0.1,0.1,0.1c0.1,0,0.5-0.4,0.6-0.5
						c0.2-0.1,0,0.2,0.4-0.2c-0.3,0.6,0.6-0.2,0.8-0.2C16.9,0.1,16.7,0.4,16.9,0.4"/>
				</g>
				<path id="Fill-6" class="st4" d="M62.1,34.9c-0.4-0.6-1.1-0.9-1.2-1.6c-1.8,0.2-3.4,1-5,1.7c-3.7,1.6-7.6,2.6-11.6,2.8
					c-1.8,0.1-3.7,0.1-5.5-0.3c-1.1-0.3-2.2-0.7-3.4-1.1c-1.8-0.6-3.6-1-5.5-1.4c-3.6-0.8-7.1-1.6-10.7-2.5
					c-1.5-0.3-2.9-0.7-4.4-0.8c-2-0.1-5.6,0-7.2,1.3c-1.4,1.1-0.4,3.2-0.3,4.7c0.5,4.6,5.1,10.8,7.9,14.3c2.5,3.2,10,11.1,23.5,11.7
					c8.4,0.4,22-10.4,23.3-19.4c0.4-2.7,1.2-3.9,0.6-7.7C62.4,36.1,62.5,35.4,62.1,34.9z"/>
			</g>
		</g>
	</g>
</g>
</svg>
