<?xml version="1.0" encoding="UTF-8"?>
<svg width="69px" height="139px" viewBox="0 0 69 139" version="1.1" xmlns="http://www.w3.org/2000/svg" xmlns:xlink="http://www.w3.org/1999/xlink">
    <!-- Generator: Sketch 54.1 (76490) - https://sketchapp.com -->
    <title>Group 8 Copy 15</title>
    <desc>Created with Sketch.</desc>
    <defs>
        <polygon id="path-1" points="0 0.0775923246 55.7963989 0.0775923246 55.7963989 133.87013 0 133.87013"></polygon>
    </defs>
    <g id="Web:-Marketing-&amp;-Members-" stroke="none" stroke-width="1" fill="none" fill-rule="evenodd">
        <g id="desktop_quiz_end_1" transform="translate(-1126.000000, -296.000000)">
            <g id="Group-6" transform="translate(479.000000, 297.000000)">
                <g id="Group-8-Copy-15" transform="translate(646.000000, 0.000000)">
                    <path d="M22.8820763,2.75075854 C22.9756721,2.76587723 23.0783255,2.78099592 23.1930558,2.79611462 L23.2081519,2.76890097 C23.0330372,2.74471106 22.9122685,2.73866358 22.8820763,2.75075854 L22.8820763,2.75075854 Z M25.0830866,3.03196623 C25.324624,3.06522735 25.5963537,3.11058343 25.5782384,3.07127483 C25.3759508,3.03196623 25.0770481,2.98661015 25.0830866,3.03196623 L25.0830866,3.03196623 Z M60.9423445,15.0452797 C60.9272484,15.0392322 60.9363061,15.0785408 60.9453638,15.1148257 C61.0661325,15.3325349 61.2503048,15.7528345 61.3197469,15.8344755 C61.2684201,15.6863123 61.0329211,15.1934429 60.9423445,15.0452797 L60.9423445,15.0452797 Z M61.5763804,16.4120096 C61.8028218,16.8867365 61.902456,17.101422 62.0866283,17.4975317 C62.1077629,17.4158908 61.6367648,16.430152 61.5763804,16.4120096 L61.5763804,16.4120096 Z M66.9807815,43.9310546 C66.9566278,43.8433662 66.9173779,44.5176599 66.9415317,44.49347 C66.9717239,44.3483305 66.9747431,44.1155026 66.9807815,43.9310546 L66.9807815,43.9310546 Z M66.9113395,44.7323453 C66.8569936,45.4126865 66.8268014,45.8360099 66.7543401,46.749179 C66.835859,46.5042561 66.9385125,44.9651732 66.9113395,44.7323453 L66.9113395,44.7323453 Z M65.5074029,53.0143654 C65.3775765,53.3016205 65.2356732,53.5677095 65.2205771,53.6644692 C65.3141729,53.4951398 65.5074029,53.1201962 65.5074029,53.0143654 L65.5074029,53.0143654 Z M64.7163676,54.4627362 C64.7012716,54.4234276 64.2031005,55.0765551 64.2061197,55.1249349 C64.3963305,54.8860596 64.6348487,54.6048519 64.7163676,54.4627362 L64.7163676,54.4627362 Z M52.6636474,63.3404327 L53.0350113,63.2013407 C53.1587993,63.1076048 52.61534,63.3313615 52.6636474,63.3404327 L52.6636474,63.3404327 Z M37.7517273,72.8621856 C37.8181501,73.469957 38.0113801,74.6582863 38.1049759,75.0513723 C37.9993033,74.33777 37.8724961,73.4760045 37.7517273,72.8621856 L37.7517273,72.8621856 Z M44.2249318,66.1434384 C44.0045288,66.2069369 43.6905301,66.2885778 43.675434,66.3157915 C43.868664,66.2734591 44.1162399,66.2008894 44.2249318,66.1434384 L44.2249318,66.1434384 Z M59.4357545,60.2048158 C58.9526796,60.4739285 58.5179121,60.7188513 58.1646635,60.9153943 C58.2612785,60.9184181 59.4085815,60.2955279 59.4357545,60.2048158 L59.4357545,60.2048158 Z M41.0789061,67.0868448 C41.1634442,67.0263701 40.6652732,67.1745332 40.538466,67.2229131 C40.5052546,67.2652454 40.9370028,67.1442959 41.0789061,67.0868448 L41.0789061,67.0868448 Z M38.2831098,87.6210537 C38.2891482,84.9178314 38.2921675,82.4051046 38.2982059,79.7139772 C38.2951867,78.4863394 38.3102828,77.1800843 38.2076293,76.2245829 C38.2106486,76.6811674 38.2317831,76.9381852 38.2529176,77.1921792 C38.2498984,78.190013 38.2468792,78.9973512 38.2468792,79.843998 C38.2498984,81.1230394 38.2559368,82.5169829 38.2619753,83.8444042 C38.2529176,85.3139411 38.2015909,86.8711665 38.2680137,87.94157 C38.2740521,87.8448103 38.2770714,87.7389795 38.2831098,87.6210537 L38.2831098,87.6210537 Z M57.4551472,61.3175516 C56.8392266,61.6380679 56.0361145,62.0492963 54.8193694,62.6752102 C55.4383092,62.4544773 56.8875341,61.7015664 57.4551472,61.3175516 L57.4551472,61.3175516 Z M38.4159554,78.4893631 C38.4189746,78.8098794 38.3948209,78.9701375 38.4219938,79.1424906 C38.4401092,78.9913037 38.4250131,78.6435738 38.4159554,78.4893631 L38.4159554,78.4893631 Z M37.9993033,73.203868 C38.0415723,73.482052 38.0898798,73.9053754 38.1261104,73.8690905 C38.1140336,73.6997612 38.0385531,73.2099155 37.9993033,73.203868 L37.9993033,73.203868 Z M38.4703013,80.3882709 C38.4612437,80.8478792 38.4461476,81.2681789 38.4159554,81.4919355 C38.4038785,82.7407396 38.4189746,83.7385733 38.4823782,84.3917009 C38.4853974,83.0703271 38.5186088,81.3800572 38.4703013,80.3882709 L38.4703013,80.3882709 Z M38.4733206,85.0418047 L38.409917,85.0024961 C38.4068978,85.4590806 38.4068978,85.8158817 38.4038785,86.2240865 C38.4431284,85.9186889 38.4431284,86.2724663 38.4733206,86.4327244 C38.4974743,86.0426621 38.4944551,85.3048699 38.4733206,85.0418047 L38.4733206,85.0418047 Z M38.4733206,87.004211 C38.4310515,87.0223534 38.4582245,87.6573386 38.4612437,87.8175967 C38.4612437,87.5061516 38.4944551,87.2521576 38.4733206,87.004211 L38.4733206,87.004211 Z M38.4672821,88.0655433 C38.409917,88.3195373 38.382744,89.4050595 38.3948209,90.1458754 C38.4189746,90.185184 38.4219938,89.9825935 38.4491668,90.0188784 C38.4823782,89.4292494 38.4672821,88.6491248 38.4672821,88.0655433 L38.4672821,88.0655433 Z M40.3180631,67.5585481 L39.7323347,67.7157825 C39.487778,67.8125421 39.36399,67.7550911 38.9201649,68.0483937 C38.2136678,68.5956904 38.1744179,69.2457942 38.1140336,69.5058357 C38.189514,68.9887764 38.5246473,68.1572483 39.294548,67.8760406 C39.653835,67.7641623 39.9738721,67.6674026 40.3180631,67.5585481 L40.3180631,67.5585481 Z M38.05063,69.7779722 C37.9238228,70.821162 38.0415723,71.7766634 38.147245,72.3390788 C38.023457,71.5256931 38.023457,70.2224618 38.05063,69.7779722 L38.05063,69.7779722 Z M38.2287639,72.9952301 C38.2740521,73.4397196 38.409917,74.1956543 38.4853974,74.5433842 C38.4401092,74.1896068 38.2982059,73.2008443 38.2287639,72.9952301 L38.2287639,72.9952301 Z M38.5608779,75.0967284 C38.575974,75.3083901 38.6333391,75.7710221 38.6605121,75.8587105 C38.6665505,75.6440251 38.6091854,75.1602269 38.5608779,75.0967284 L38.5608779,75.0967284 Z M38.714858,78.6677637 L38.714858,79.2362265 C38.7722232,79.3874135 38.7541079,78.6677637 38.714858,78.6677637 L38.714858,78.6677637 Z M38.5306857,107.91034 C38.5035127,107.756129 38.4763398,108.134096 38.4582245,108.273188 C38.4944551,109.313354 38.4642629,111.003624 38.5850316,111.333212 C38.5638971,110.153954 38.5427626,108.935387 38.5306857,107.91034 L38.5306857,107.91034 Z M38.7239157,80.6241226 C38.714858,81.1260632 38.7058004,81.7459296 38.7390118,82.0180661 C38.7359926,81.4223896 38.7843001,80.8448555 38.7239157,80.6241226 L38.7239157,80.6241226 Z M38.6756082,115.236858 C38.6816466,115.566446 38.6997619,115.808345 38.7329733,115.826487 C38.7390118,115.584588 38.7178773,115.224763 38.6756082,115.236858 L38.6756082,115.236858 Z M38.7329733,82.4262708 C38.7118388,82.9342589 38.7058004,83.9079027 38.7299541,84.3009887 C38.742031,83.8685941 38.769204,82.8798316 38.7329733,82.4262708 L38.7329733,82.4262708 Z M38.7178773,84.5398641 C38.7058004,84.6759323 38.7118388,84.9722587 38.6846659,84.9269026 C38.6484352,84.830143 38.6937235,84.1135169 38.6514545,84.0863033 C38.6393776,86.4448194 38.6303199,88.9091663 38.618243,91.1860415 C38.7027812,90.983451 38.6303199,89.6409111 38.672589,89.0936144 C38.7058004,89.2387538 38.6574929,90.0067835 38.7058004,90.0128309 C38.7178773,88.1320655 38.7661848,85.9852111 38.7178773,84.5398641 L38.7178773,84.5398641 Z M38.6846659,90.2486825 C38.6665505,90.6810772 38.672589,91.4188694 38.7027812,91.7303145 C38.7058004,91.1588279 38.7299541,90.4422018 38.6846659,90.2486825 L38.6846659,90.2486825 Z M39.1073564,121.650208 C39.1254718,122.130982 39.2190675,123.068341 39.3036056,123.464451 C39.2492597,123.001819 39.2069907,121.997938 39.1073564,121.650208 L39.1073564,121.650208 Z M38.6937235,92.3804183 C38.6876851,93.3510383 38.6605121,94.5333201 38.6997619,95.1622578 C38.714858,94.3821332 38.7239157,93.0486645 38.6937235,92.3804183 L38.6937235,92.3804183 Z M38.6876851,96.2991835 C38.6876851,96.5320114 38.6756082,96.8525277 38.7027812,96.8797413 C38.6967427,96.6892458 38.7239157,96.2568511 38.6876851,96.2991835 L38.6876851,96.2991835 Z M38.6876851,97.2788748 C38.6695698,97.750578 38.6786274,98.3039222 38.6967427,98.6728183 C38.7058004,98.1648302 38.7450502,97.5752012 38.6876851,97.2788748 L38.6876851,97.2788748 Z M38.7782616,108.303426 C38.7601463,106.821794 38.7359926,105.1285 38.7178773,103.81015 C38.645416,104.904744 38.7027812,106.79458 38.7118388,107.937553 C38.7299541,108.173405 38.7510887,108.466708 38.7631655,108.617895 C38.769204,108.896079 38.7661848,109.274046 38.7843001,109.434304 C38.838646,109.243808 38.7873193,108.705583 38.7782616,108.303426 L38.7782616,108.303426 Z M39.2613366,120.392333 C39.2462405,120.380238 39.2432213,120.419546 39.2371828,120.458855 C39.2613366,120.812632 39.294548,120.97289 39.3247402,121.130125 C39.3036056,120.873107 39.2885096,120.534448 39.2613366,120.392333 L39.2613366,120.392333 Z M39.3730477,121.622994 C39.3700285,121.777205 39.4304128,122.499878 39.4666434,122.451499 C39.4364513,122.134006 39.4032399,121.737896 39.3730477,121.622994 L39.3730477,121.622994 Z M63.6475643,15.5895527 C63.6807757,15.7316684 64.1608314,16.8050956 64.2212158,16.8625466 C64.0461011,16.4634131 63.768333,15.7528345 63.6475643,15.5895527 L63.6475643,15.5895527 Z M62.1590896,12.0094461 C62.2436277,12.2301791 62.5274342,12.7653808 62.6602799,12.9589001 C62.4942228,12.647455 62.2436277,12.0941108 62.1590896,12.0094461 L62.1590896,12.0094461 Z M63.1856239,13.9899949 C63.1403356,14.0262798 63.436219,14.5312441 63.5630262,14.8033806 C63.8196598,15.3416061 64.0400627,15.8042381 64.4204842,16.6055288 C64.0551588,15.7377158 63.5901992,14.833618 63.1856239,13.9899949 L63.1856239,13.9899949 Z M64.5170992,16.8323092 C64.5774836,16.9986148 64.831098,17.6033626 64.8612901,17.5912676 C64.7375022,17.3009887 64.5865413,16.9260451 64.5170992,16.8323092 L64.5170992,16.8323092 Z M65.6976137,19.5869351 C65.6402485,19.5566977 65.7730941,19.865119 65.8425361,20.0525908 C65.8757475,20.0404959 65.7791326,19.7804544 65.6976137,19.5869351 L65.6976137,19.5869351 Z M66.2471114,21.0715907 C66.2048424,21.0201872 66.4644952,21.7912405 66.4795912,21.7761218 C66.4554375,21.6521486 66.3135342,21.1985878 66.2471114,21.0715907 L66.2471114,21.0715907 Z M64.3933113,58.7020177 C64.3872728,58.6566616 63.9676015,59.1253411 63.9162747,59.1858159 C64.0400627,59.0890562 64.2634849,58.8532046 64.3933113,58.7020177 L64.3933113,58.7020177 Z M40.3422168,78.918734 C40.3633513,79.4962681 40.3090054,80.2098704 40.3603321,80.4850306 C40.3784474,80.0798496 40.3875051,79.1001583 40.3422168,78.918734 L40.3422168,78.918734 Z M40.3482552,83.5813389 C40.3422168,83.9714012 40.3361784,84.3463448 40.3512745,84.5701014 C40.3633513,84.1256119 40.3754282,83.8595229 40.3482552,83.5813389 L40.3482552,83.5813389 Z M47.6789177,67.4103849 L48.0683969,67.3015303 C48.1921849,67.235008 47.5672066,67.4134086 47.6789177,67.4103849 L47.6789177,67.4103849 Z M46.507461,67.7490436 C46.6916333,67.7006638 46.770133,67.6825213 46.8939209,67.6492602 C47.0418626,67.5676193 46.4923649,67.7278774 46.507461,67.7490436 L46.507461,67.7490436 Z M44.0920862,68.4475272 C43.9984904,68.4596222 43.7146839,68.5382394 43.702607,68.5684767 C43.8022412,68.5533581 44.0800093,68.4747408 44.0920862,68.4475272 L44.0920862,68.4475272 Z M40.3271207,89.8707152 C40.3059862,90.0884244 40.3271207,90.5177953 40.3210823,90.8534303 C40.4086396,90.9894985 40.372409,89.8707152 40.3271207,89.8707152 L40.3271207,89.8707152 Z M43.1621669,68.7075687 C42.3258433,68.9676102 41.2691169,69.2095093 40.897753,69.3848862 C41.6978459,69.1520583 42.6549382,68.8950405 43.1621669,68.7075687 L43.1621669,68.7075687 Z M40.0644487,69.5935241 C40.0523718,69.4786221 39.9014109,70.1650107 39.9919875,69.8989217 C39.9919875,69.7809959 40.1157754,69.5330494 40.0644487,69.5935241 L40.0644487,69.5935241 Z M40.3301399,96.8162428 C40.2637171,97.2667798 40.2939093,98.5790824 40.3120246,99.2473286 C40.3512745,98.5821061 40.3301399,97.6024148 40.3301399,96.8162428 L40.3301399,96.8162428 Z M40.3331591,94.696602 C40.3482552,94.5847237 40.3573129,94.5091302 40.372409,94.3972519 C40.3663706,93.251255 40.4056204,91.7786943 40.3180631,91.2586112 C40.3150438,92.5860325 40.3120246,93.9195012 40.3120246,94.847789 C40.3150438,95.2348275 40.2788132,95.8758601 40.3271207,96.0814743 C40.3301399,95.494869 40.3301399,95.1894714 40.3331591,94.696602 L40.3331591,94.696602 Z M40.3059862,73.8690905 C40.3090054,74.002135 40.3814666,74.4556958 40.4116588,74.4436009 C40.3754282,74.1865831 40.3361784,73.9537552 40.3059862,73.8690905 L40.3059862,73.8690905 Z M40.5022354,75.205583 C40.5777158,75.8435918 40.5716774,76.396936 40.607908,76.790022 C40.6048888,76.5995265 40.5928119,75.3356037 40.5022354,75.205583 L40.5022354,75.205583 Z M40.6320618,80.896259 C40.6169657,81.2802738 40.607908,82.1662292 40.6471579,82.377891 C40.6471579,81.8578079 40.6773501,81.0897783 40.6320618,80.896259 L40.6320618,80.896259 Z M40.635081,84.6638373 C40.6018696,84.5791727 40.6199849,85.0387809 40.6109272,85.2171815 C40.6501771,85.2837037 40.6411194,84.8543329 40.635081,84.6638373 L40.635081,84.6638373 Z M40.6199849,86.4538906 C40.6048888,86.5506502 40.5988504,86.9316413 40.6230041,86.94676 C40.6411194,86.8258104 40.6381002,86.5325078 40.6199849,86.4538906 L40.6199849,86.4538906 Z M40.6199849,89.1540892 C40.5837543,89.120828 40.5928119,89.8465253 40.6109272,89.8828102 C40.6320618,89.7285995 40.6230041,89.3506322 40.6199849,89.1540892 L40.6199849,89.1540892 Z M40.5988504,92.0840919 C40.5837543,92.2080652 40.5837543,92.5890562 40.6109272,92.5830087 C40.6139465,92.3683233 40.6230041,92.1113055 40.5988504,92.0840919 L40.5988504,92.0840919 Z M40.6139465,93.3177772 C40.5807351,93.2331125 40.5837543,93.9164775 40.607908,93.8892638 C40.6139465,93.7048158 40.6290426,93.4840828 40.6139465,93.3177772 L40.6139465,93.3177772 Z M40.5928119,94.2853736 C40.5928119,94.5333201 40.5746966,94.9112875 40.6048888,94.9445486 C40.6230041,94.7812667 40.6139465,94.3791095 40.5928119,94.2853736 L40.5928119,94.2853736 Z M40.6048888,97.8805988 C40.5565813,97.820124 40.5777158,98.4520854 40.6018696,98.5307026 C40.6199849,98.3825394 40.6109272,98.0680706 40.6048888,97.8805988 L40.6048888,97.8805988 Z M40.5867735,99.3319933 L40.5837543,99.9820971 C40.6139465,100.009311 40.6320618,99.3017559 40.5867735,99.3319933 L40.5867735,99.3319933 Z M40.6199849,103.574299 C40.5777158,103.48661 40.5867735,104.154856 40.6290426,104.067168 C40.6230041,103.770842 40.6230041,103.734557 40.6199849,103.574299 L40.6199849,103.574299 Z M40.6441387,105.932815 C40.5958312,105.899554 40.6139465,107.027408 40.6531963,107.066717 C40.6713116,106.725034 40.6441387,106.344043 40.6441387,105.932815 L40.6441387,105.932815 Z M40.6773501,109.410114 C40.6531963,109.782034 40.6894269,110.229547 40.7015038,110.713345 C40.7286768,111.777701 40.7135807,113.168621 40.8101957,113.882223 C40.773965,112.606206 40.7226383,110.946173 40.6773501,109.410114 L40.6773501,109.410114 Z M56.7365732,129.009988 C56.3289787,128.934394 56.4195552,128.997893 56.2897289,129.013011 C55.8700575,128.934394 55.2571561,128.819492 55.1061952,128.858801 C53.3973175,128.586664 51.7971317,128.550379 50.3026186,128.40524 C49.5176218,128.33267 48.9107589,128.244982 48.0683969,128.0817 C47.1747082,127.942608 46.3806538,127.909347 45.6137723,127.845848 C45.2816582,127.818635 45.3269465,127.876086 45.0250247,127.848872 C44.5087383,127.803516 43.9501829,127.740017 43.4308773,127.619068 C42.9689369,127.543474 42.2865935,127.222958 42.3560355,127.186673 C42.2986704,127.117127 42.0239215,126.448881 41.9303257,125.907632 C41.7884225,125.354288 41.7038843,124.764659 41.6133078,124.247599 C41.5710387,123.930107 41.5136736,123.500736 41.4563084,123.292098 C41.4381931,123.615638 41.6465192,124.794896 41.685769,125.206125 C41.9333449,126.185816 42.2141323,127.546498 42.5371886,127.38624 C42.6760727,127.486023 42.4284968,127.398335 42.3801893,127.38624 C42.6730535,127.622092 43.2436858,127.727923 43.7780874,127.860967 C43.1108402,127.797469 42.3288626,127.449739 42.1839401,127.413454 C42.1990362,127.461834 41.8608837,126.681709 41.740115,126.158602 C41.5770772,125.562926 41.45027,124.937012 41.3506358,124.286908 C41.1936364,123.18022 40.9520989,121.387143 40.9158683,120.223003 C40.731696,118.475282 40.5807351,115.657158 40.565639,113.667538 C40.469024,112.929746 40.5143123,111.886556 40.4811009,110.583325 C40.4509087,109.658061 40.4297741,108.88096 40.4056204,108.131073 C40.4116588,107.396304 40.4297741,106.416613 40.3693898,105.52461 C40.4267549,104.635631 40.3542937,103.580346 40.3271207,102.58856 C40.3693898,101.956598 40.3210823,101.103904 40.3150438,100.390302 C40.2667363,100.976907 40.2969285,101.908219 40.302967,102.733699 L40.302967,106.534539 C40.3090054,107.674488 40.4176973,108.853746 40.3482552,109.6248 C40.4811009,113.262357 40.5867735,117.782846 40.9822911,121.792324 C41.0305986,122.282169 40.9339836,121.840703 40.9611566,122.239837 C41.0064449,122.971582 41.160425,124.162935 41.2691169,124.47438 C41.229867,123.963368 41.1121175,123.482594 41.0970214,123.05927 C41.2359055,123.772872 41.3506358,124.937012 41.3929048,125.390573 C41.546885,126.101151 41.7038843,126.869181 41.9544795,127.328789 C42.002787,127.522308 42.0843059,127.398335 42.0329792,127.555569 C42.1658248,127.540451 42.2503629,127.679543 42.3983046,127.718851 C42.6549382,127.851896 42.9689369,127.945632 43.3010509,128.027273 C43.8052604,128.142175 44.3034315,128.217768 45.112582,128.299409 C45.9579632,128.393145 46.8063636,128.426406 47.7121291,128.550379 C48.663183,128.707614 49.3243918,128.834611 50.1848691,128.907181 C51.8243047,129.064415 53.5663938,129.073486 55.462463,129.439359 C55.8881728,129.575427 56.4588051,129.672186 57.2890902,129.938275 C57.4793009,130.038059 57.6664925,130.14389 57.5245892,130.146913 C57.5668583,130.198317 58.3941241,130.606522 57.7751843,130.352528 C59.02816,131.18708 58.4847007,131.075201 59.1549672,132.103272 C58.8953144,131.80997 59.1610056,132.36029 59.0734483,132.390527 C59.0523138,132.399599 58.9647564,132.281673 58.9526796,132.308887 C58.9677756,132.514501 59.0221216,133.75121 58.626604,132.738257 C58.6175463,132.883397 58.5752772,132.940848 58.5903733,133.240198 C58.572258,133.358124 58.5118737,133.019465 58.4454509,132.946895 C58.4726238,133.442789 58.3246821,133.255317 58.170702,133.717949 C58.0801254,133.708878 58.0952215,133.615142 58.0680485,133.527453 C58.1374906,133.324863 57.9804912,132.792685 57.6544156,132.499382 C57.3253208,132.184913 56.7275155,131.927895 56.0119608,131.76159 C54.2638332,131.323148 52.4372061,131.274768 50.4565987,131.111486 C49.5146026,131.044964 48.3612611,130.872611 47.5188991,130.700258 C46.6855948,130.576284 45.7134065,130.533952 44.7200836,130.425097 C44.0226441,130.343456 43.34332,130.258792 42.6066307,130.062249 C42.2352668,129.953394 41.8548453,129.841516 41.4442316,129.632878 C41.2449631,129.545189 41.0366371,129.403074 40.8222725,129.263982 C40.5716774,129.040225 40.2274865,128.668305 40.1338907,128.444549 C39.7353539,127.688614 39.5602392,127.102009 39.4183359,126.473071 C39.3488939,126.161626 39.3066249,125.946941 39.2643558,125.626424 C39.0922603,124.625567 38.9201649,123.606567 38.811473,122.602686 C38.6061662,120.836822 38.4672821,118.692992 38.4189746,117.175075 C38.3767056,116.110719 38.313302,114.707704 38.2529176,113.313761 C38.2106486,111.59023 38.1532834,109.207524 38.1019567,107.257212 C38.0959182,105.905601 38.0808222,103.371708 38.0717645,101.551417 C38.0687453,98.9328598 38.0657261,96.8011241 38.0627068,94.1160442 C38.0596876,93.0214508 38.0566684,91.8875489 38.0566684,90.7566706 C38.0778029,87.8175967 38.0989375,85.338131 38.1230912,82.3718435 C38.0657261,79.6837399 38.2408407,76.790022 37.8181501,74.4194109 C37.66417,73.4608858 37.4890553,72.4237435 37.4105557,71.2989127 C37.3894211,70.7213786 37.3713058,70.1287259 37.4920746,69.4241948 C37.5584974,69.0673936 37.6732277,68.6591889 37.9449573,68.2116756 C38.1351681,67.9818715 38.2680137,67.7490436 38.5578587,67.570643 C38.8477037,67.3741 39.1466063,67.247103 39.2039714,67.247103 C43.1531092,66.0103939 47.2652848,65.0579162 51.1147884,63.5732606 C53.0621843,62.8868719 54.8284271,62.1369847 56.6037276,61.1572934 L59.2606398,59.669614 C60.036579,59.2221007 60.7732683,58.6506141 61.4676886,58.0095815 C62.1711665,57.3655252 62.8323753,56.6519229 63.4694304,55.9020357 C64.112524,55.1279586 64.7646751,54.3659765 65.1300006,53.6705166 C65.9542472,52.1495761 66.3256111,50.2295021 66.5460141,48.2912857 C66.7543401,46.2563096 66.9505893,43.9885056 67.0321082,41.9142209 C67.0653196,41.2096898 67.0441851,40.4839926 67.0502235,39.7582953 C67.0200314,36.002812 66.5550717,31.9842634 65.6644023,28.089688 C64.6982523,23.7415519 63.0195669,19.3238698 60.7793067,14.8971165 C59.8614643,13.0556597 58.8319108,11.1960605 57.7540498,9.30622383 L56.0934796,6.44879085 L55.2450793,5.0034438 C54.9552343,4.51662188 54.6623701,3.98746763 54.523486,3.84837565 C54.3725251,3.71835489 54.5355629,3.78487714 54.2064681,3.70021246 C53.9287,3.65788012 53.3308947,3.64578517 52.850839,3.624619 C51.8363816,3.59740535 50.7856935,3.60647656 49.6655635,3.66090386 C48.2042617,3.72440237 46.6916333,3.88163678 45.2061778,4.02979997 C44.614411,4.08422726 43.9411252,4.14772577 43.3674737,4.20215307 C40.4086396,4.619429 36.3115601,4.80992453 33.1202462,4.38357738 C31.0067932,4.16586821 28.9869361,3.66997507 27.0848284,3.37364869 C25.1313941,3.05917988 23.1628636,2.81425705 21.1913139,2.62980899 C21.8011961,2.64795143 22.4895779,2.69633124 22.8518841,2.67516507 C24.8083377,2.88682678 26.6651571,3.19222437 28.0389015,3.44017094 C28.0419207,3.47040833 27.6494223,3.38271991 27.6131917,3.40690982 C29.2828195,3.70625994 32.0031353,4.3140314 33.6003019,4.35636374 C34.3490681,4.48940824 35.8375428,4.55895422 36.8791732,4.5650017 C36.9093654,4.52871684 36.2843872,4.54685927 36.2300412,4.51057441 C37.9117459,4.46824207 38.7963769,4.4470759 40.2123904,4.41079103 C42.5764385,4.15377325 46.5255763,3.69416498 49.0164315,3.57926292 C49.4783719,3.55507301 49.9221971,3.5308831 50.3690414,3.50669319 C50.9426929,3.50971693 51.7095744,3.51576441 52.2318992,3.51878814 C52.8991465,3.52483562 53.762643,3.47947954 54.2457179,3.53693058 C54.6442548,3.63973769 54.4781978,3.52785936 54.8435232,3.98444389 L55.8730767,5.72309359 C57.0475527,7.72783228 58.240144,9.75071341 59.3481972,11.8461643 C60.1362132,13.3277962 60.92121,14.891069 61.5522267,16.2003479 C62.3281658,17.7938581 63.1131626,19.6957897 63.6626604,21.1139231 C63.7381409,21.2983711 63.892121,21.6612198 63.9796783,21.866834 C64.2453696,22.5774126 64.5201184,23.3998695 64.7375022,24.1346379 C64.9609243,24.8119554 65.205481,25.6071987 65.3081345,26.1938039 C65.259827,26.2875398 65.0877315,25.4711304 65.0122511,25.3350622 C66.5913023,30.9531685 67.3732799,37.4239691 66.9898392,43.4412089 C66.9777623,43.8312712 67.0502235,43.2749033 67.0653196,43.5742534 C66.9143587,45.8874135 66.7966092,48.8809147 66.1565349,51.3513091 C66.047843,51.641588 66.0327469,51.6173981 65.9844394,51.641588 C65.8908436,51.9348907 65.8244208,52.1525999 65.7187482,52.4791636 C65.661383,52.7361814 65.8636707,52.1253862 65.8455554,52.3340242 C65.564768,53.0052941 65.3866342,53.5344484 65.0907507,54.0242941 C64.6922139,54.7197539 63.8287174,55.6964215 63.1705278,56.4614274 C62.122859,57.6467329 60.948383,58.7776111 59.6289845,59.612163 C58.2069326,60.4376436 56.609766,61.3447652 55.0941183,62.0886049 C52.0416884,63.4976671 48.6239331,64.6708777 45.4567729,65.568928 C44.158509,65.9529429 42.6036114,66.3702188 41.5227312,66.7360911 C41.0185217,66.8751831 40.511293,67.0172988 39.9889682,67.1624383 L39.1526447,67.4013136 C38.6333391,67.5676193 38.0083609,68.1905094 37.8785345,68.6259278 C37.2505371,70.4310997 37.6339778,71.5347643 37.6973814,72.5205031 C37.6883238,71.942969 37.5554781,71.0388712 37.594728,70.2133905 C37.6249202,69.7537823 37.6581316,69.2760316 37.9117459,68.6894263 C38.0113801,68.4142661 38.2498984,68.0756074 38.5427626,67.8125421 C38.7118388,67.6855451 38.9020496,67.570643 39.0892411,67.4769071 L39.3730477,67.3922424 C40.0855832,67.1836045 40.7950996,66.9719428 41.5015967,66.7663285 C42.9206294,66.3520763 44.3396621,65.9348004 45.8402137,65.4993821 C47.7604366,64.979299 49.6534866,64.3231477 51.5072868,63.6337353 C53.3792022,62.9685128 55.0941183,62.2065307 56.8392266,61.2540531 C58.2371248,60.4618335 59.6984265,59.7603262 60.8125181,58.8532046 C61.9869941,57.9128219 63.0557975,56.766825 64.0611972,55.5361634 C66.1625733,53.3379054 66.5913023,50.2567158 66.9022818,47.0273629 C67.1589154,43.9703632 67.3642223,40.502135 67.1921268,37.3362807 C67.2343959,37.8714824 67.291761,38.5639186 67.3370493,39.1384289 C67.3913952,41.496945 67.2374151,43.834295 67.0411659,46.286547 C66.8509551,48.6783242 66.5882831,51.0761489 65.7308251,53.1171725 C65.329269,54.1271012 64.680137,54.9253682 63.8830633,55.8899408 C63.1222203,56.8031098 62.3251466,57.6618516 61.4707078,58.42081 C60.5921152,59.206982 59.7648493,59.7633499 58.6779307,60.3469315 C57.6363003,60.9335368 56.5976891,61.5140946 55.5620972,62.0281301 C54.7136968,62.4605248 53.3308947,63.0350351 53.1014341,63.2134357 C52.6666667,63.3857888 52.1805725,63.5490707 52.2953028,63.4674297 C50.598502,64.0903199 48.7779133,64.7555424 46.9844975,65.2907441 C46.9392092,65.3421477 46.4078267,65.4872871 46.1059049,65.6021892 C50.3569645,64.3715276 54.2970446,63.0168927 57.9140684,60.8942282 C59.8614643,59.8812757 61.3378622,58.8441334 62.7629333,57.2929555 C63.463392,56.5521395 64.12762,55.75992 64.7676944,54.9374631 C65.3685188,54.1966472 65.7761133,53.3681428 66.1021889,52.4307838 C66.2863613,52.0951488 66.5762062,51.0821964 66.5520525,50.8161074 C66.8328398,49.6882529 66.9566278,48.067529 67.1045695,47.1755261 C67.1106079,46.2684045 67.3370493,44.1034077 67.3974337,42.561301 C67.5332985,42.1984524 67.5000871,40.1513813 67.4880102,38.7483666 C67.5393369,39.2956633 67.5453754,40.0788116 67.5363177,40.7742715 C67.5302793,42.0109806 67.4759333,43.1237164 67.3793184,44.3815916 C67.3491262,44.7262978 67.3793184,44.759559 67.3732799,44.9833156 C67.3038379,45.4852562 67.3128955,45.7211078 67.3219532,46.0537191 C67.3762991,45.5033987 67.388376,45.3643067 67.4427219,44.8563186 C67.415549,45.7846064 67.3068571,47.1452887 67.1498577,48.4092115 C67.1800499,47.8467961 67.291761,46.8157012 67.2977995,46.2079298 C67.2132613,46.3137606 67.2253382,46.9547932 67.2102421,47.2541433 C67.1287232,48.0524103 67.056262,48.8234637 66.9143587,49.6156832 C66.8328398,50.0752914 66.7241479,50.46233 66.627533,50.8886771 C66.4222261,51.8109174 66.0780352,52.8631784 65.6855368,53.6795879 C65.6100563,53.8579884 65.5255182,54.0273178 65.4228648,54.2178133 C65.0273472,54.9102495 64.2544272,55.7538725 63.7351216,56.4463087 C63.7864484,56.4342137 64.1366777,55.9836767 64.112524,56.0804363 C63.2641236,57.1387448 62.0564362,58.3815014 60.9544214,59.2462906 C61.1687859,59.0285814 62.0896476,58.2998604 62.1741857,58.1123886 C61.4978807,58.7383025 60.5528654,59.5274983 59.7648493,60.005249 C59.80108,60.074795 60.5075771,59.5516882 60.7098647,59.4186437 C59.22139,60.5434745 57.1381292,61.544332 55.1756372,62.5542607 C54.9340998,62.6721865 54.4993323,62.8868719 54.2336411,63.0168927 C51.7639203,64.0449638 48.9077397,65.0518687 46.3595192,65.789661 C47.12942,65.593118 47.1747082,65.5840467 47.9113975,65.3995987 C50.8370203,64.3836225 53.955873,63.3706701 56.8211113,61.7771598 C58.2612785,60.9667979 59.80108,60.2290057 60.990652,59.2795518 C62.2255124,58.3059079 63.3094118,57.1387448 64.2846194,55.9473918 C64.997155,55.0765551 65.7006329,54.2208371 66.117285,53.12322 C66.5701678,52.0528165 66.8449167,50.8826296 66.9988968,49.8666535 C67.3944144,47.0878377 67.6148174,43.9552445 67.7053939,41.1189777 C67.7174708,39.7915564 67.6872786,38.4883251 67.6148174,37.1729988 C67.5876444,36.6105834 67.5483946,35.9060523 67.5151832,35.343637 C67.3279916,33.063738 66.9354932,30.820124 66.4735528,28.5795337 C66.4101492,28.2529699 66.3225919,27.8084804 66.2531499,27.4879641 C66.0870928,26.8711214 65.8455554,25.9972609 65.6764791,25.3743708 C65.5526912,24.9298812 65.4168263,24.4521305 65.2869999,23.9894985 C65.0967892,23.3514897 64.8492133,22.7104571 64.6257911,22.0724482 C64.3510422,21.3255848 64.1004471,20.5605789 63.822679,19.8893089 C62.8746444,17.5398641 61.6035534,14.8094281 60.1784823,12.1606331 C60.0003484,11.849188 59.7557917,11.4198171 59.5686001,11.0932533 C59.2244092,10.4673395 58.8651222,9.81118818 58.4786623,9.11270456 C58.1797596,8.598669 58.004645,8.29024766 57.6272426,7.63409638 C57.1441677,6.8207107 56.6701504,6.02546745 56.2051907,5.24231915 C56.057249,4.98227763 55.7613656,4.45614711 55.6104047,4.19308185 C55.3024444,3.64578517 54.979388,3.17408194 54.6835046,3.092441 C54.3513906,2.94427781 53.5090286,2.96242024 52.9021657,2.93823033 C52.6123207,2.92915912 52.1292458,2.91404042 51.8061894,2.90194547 C48.6812983,2.87473182 45.2756198,3.32224513 41.7733264,3.67904629 C40.7950996,3.77580593 39.7806422,3.8755893 38.7812808,3.91187416 C36.5953667,3.99653884 34.2886837,3.85744687 31.9880392,3.52483562 C28.6880334,2.93218285 25.0136445,2.21858054 21.4298322,1.94039659 C20.8863729,1.90411173 20.5301051,1.87689808 19.8266272,1.82247079 C19.6756663,1.80432836 19.3163793,1.74990106 19.0688033,1.7136162 C18.6823434,1.66523638 18.0573652,1.64104647 18,1.57452422 C18.38646,1.55335805 18.815189,1.58661918 18.8544388,1.53521562 C18.8997271,1.47474085 18.3351333,1.47776459 18.1902108,1.41124234 C18.6732857,1.42031355 18.6702665,1.42031355 19.0144574,1.42636103 C18.911804,1.39914738 18.594786,1.38402869 18.5585554,1.3537913 C18.4619404,1.30238775 18.8333043,1.32960139 18.8514196,1.29936401 C18.8695349,1.26005541 18.3804215,1.19958063 18.3623062,1.15422456 C18.332114,1.0635124 18.6642281,0.984895193 18.9329385,0.924420421 C18.9933229,0.888135558 18.5132671,0.879064342 18.483075,0.845803217 C19.0688033,0.794399661 18.9299193,0.649260208 19.6545317,0.609951606 C19.4794171,0.564595527 19.3284561,0.525286925 19.1533415,0.479930846 C19.3586483,0.446669722 19.5699936,0.416432336 19.9564536,0.419456074 C19.920223,0.401313643 19.5820705,0.389218688 19.5669744,0.368052518 C19.8688962,0.316648962 20.3066829,0.295482791 20.3700865,0.201746895 C20.7263543,0.183604463 21.4177553,0.244079235 21.8706381,0.283387837 C21.496255,0.198723156 20.681066,0.180580724 20.2613946,0.111034737 C20.6055856,0.0414887486 22.2027521,0.247102974 22.6948847,0.235008019 C22.2721942,0.16848577 21.4721013,0.111034737 20.9044882,0.0596311803 C20.2946061,-0.0310809779 20.1768565,-0.09155575 20.0409917,-0.179244169 C20.5240667,-0.182267908 20.4516054,-0.285075021 21.2758521,-0.212505294 C21.3603902,-0.236695203 21.109795,-0.279027543 21.3241596,-0.282051282 C21.7830808,-0.251813896 22.1967137,-0.224600249 22.7552691,-0.191339124 C25.4302967,0.0838210891 28.0298438,0.498073278 30.5690066,1.03327501 C31.2332346,1.17236699 31.888405,1.24493671 32.6039598,1.33564887 C35.5326018,1.71663994 38.742031,1.81944705 41.7431342,1.44147972 C42.0812867,1.39612364 42.6639958,1.3144827 43.0564942,1.26307914 C44.5268536,1.07863109 46.2296929,0.930467898 47.959705,0.806494616 C49.7863322,0.676473856 51.606921,0.619022822 53.3822214,0.679497594 C53.8139697,0.697640026 54.2577948,0.68856881 54.8556001,0.800447138 C55.4232131,0.885111819 56.1961331,1.26307914 56.6188237,1.73780611 C57.4642048,2.70540246 57.6664925,3.33131635 58.1223945,4.02375249 C58.2341056,4.21122428 58.3880857,4.46219459 58.5088544,4.6587376 C58.8953144,5.33303131 59.1579864,5.92266033 59.5776578,6.49717067 C61.5461882,9.98958876 63.8347558,14.1563006 65.3081345,17.6608136 C65.4892876,18.096232 65.2507693,17.6305762 65.3383267,17.8815465 C65.5526912,18.4318669 65.4289032,17.95714 65.5677873,18.2776563 C66.2923997,20.0435196 67.0139929,21.9091663 67.5574522,23.799003 C67.9378738,25.1203767 68.4481217,27.0102134 68.8134471,28.830504 C69.4323869,31.8814563 69.8430006,35.2196637 69.9516925,38.2373548 C69.9667886,39.0900491 69.972827,39.4408028 70,41.0191943 C69.9969808,41.3215682 69.9698078,41.3064495 69.9577309,41.5876572 C69.8550775,44.2545946 69.7071358,46.8126775 69.3478488,49.5884695 C69.1395227,50.9612468 68.8587354,52.3672853 68.3122569,53.7551813 C67.8231435,55.1551723 66.7996284,56.5219021 65.9723625,57.4622848 C64.9307322,58.7534212 63.7502177,60.0324627 62.2949544,61.1482222 C60.7521338,62.318409 59.2515822,62.9957265 57.7238576,63.8665632 C53.5543169,66.0890111 49.1251234,67.4103849 44.9404866,68.5956904 C44.6023341,68.69245 44.5962957,68.7347824 44.3064507,68.8254945 C43.7418568,68.9766815 43.2557626,69.0764648 42.6790919,69.2609129 C42.3047088,69.3818624 42.6217268,69.2216043 42.3047088,69.3213877 C41.7733264,69.4604796 41.5106544,69.5542155 41.4381931,69.6207378 L40.1972943,69.9835864 L40.1248331,70.0047526 L40.1036985,70.0108001 L40.1036985,70.0138238 L40.1006793,70.0138238 L39.8681995,69.4120998 L39.8681995,69.4151236 L39.8712187,69.4151236 L39.8742379,69.4241948 L39.889334,69.4362897 C39.8621611,69.3879099 39.9406607,69.5058357 40.0312373,69.5753817 C40.1550253,69.6479514 40.5505429,69.8807793 40.4327934,69.8203045 C40.3542937,69.9745152 40.3241015,70.8030196 40.4056204,71.4984795 C40.4750624,72.2362717 40.6018696,73.0254674 40.7347152,73.8509481 L40.9309644,75.1572032 C40.994368,75.65612 41.0034257,76.1550369 41.0185217,76.5632416 L41.0547524,79.1424906 C41.0456947,82.5411728 41.0366371,85.9640449 41.0275794,89.4080832 C41.0275794,91.5095815 41.0275794,93.6806259 41.0245602,95.9363349 C41.0305986,97.5782249 41.0336178,99.3198984 41.0366371,100.828744 C41.0366371,101.923337 41.0336178,103.027002 41.0336178,104.064144 C41.0607908,107.39328 41.1030599,110.825224 41.2177902,113.794535 C41.2389247,114.093885 41.2721361,114.623039 41.2902514,114.943556 C41.3476166,116.137932 41.4170586,117.495591 41.4834814,118.883487 C41.5831156,120.534448 41.7763456,122.212623 41.906172,123.410024 C41.9242873,123.600519 41.9574987,123.993605 41.9725948,124.172006 C42.0963827,125.006558 42.265459,126.010439 42.5251118,126.687756 L42.6639958,126.999202 C42.7153225,126.923608 42.4949196,127.050605 42.3650932,127.165507 C42.2262091,127.28948 42.1054404,127.428572 42.0088254,127.594878 L41.9695756,127.658377 L41.9665563,127.667448 L41.9635371,127.670472 C42.211113,127.319718 41.4080009,128.459667 42.5190733,126.887323 L42.5220926,126.887323 L42.528131,126.890347 L42.5462463,126.902442 L42.5794577,126.920584 L42.6488997,126.96594 C42.8572258,127.092937 43.1833014,127.210863 43.509377,127.31367 C44.9827556,127.670472 46.7218255,127.543474 48.6662022,127.918418 C49.2217384,128.018201 49.9101202,128.13008 50.6075597,128.187531 C50.9034431,128.205673 51.4016141,128.238934 51.6552285,128.257077 C51.9541311,128.290338 52.4824943,128.347789 52.781397,128.38105 C54.0041805,128.489905 55.4201939,128.641092 56.7365732,129.009988 L56.7365732,129.009988 Z M45.2544853,3.60042909 C45.402427,3.56716796 45.8643674,3.54297805 46.1391163,3.50971693 C45.9338094,3.55809675 45.5533879,3.57623918 45.2544853,3.60042909 L45.2544853,3.60042909 Z M45.0189862,3.61252404 C44.6355455,3.69416498 43.8324334,3.75161602 42.9991291,3.84232817 C43.3040701,3.76068723 44.6113917,3.65788012 45.0189862,3.61252404 L45.0189862,3.61252404 Z M47.2109389,3.35853 C46.7308831,3.40690982 46.576903,3.42202851 46.2417697,3.45528963 C46.4078267,3.40086234 46.9814783,3.37667243 47.2109389,3.35853 L47.2109389,3.35853 Z M65.5587296,27.1281392 L65.5074029,27.1099967 C65.425884,26.7804092 65.4289032,26.7925042 65.3353074,26.4145369 C65.3775765,26.3570858 65.4651338,26.7259819 65.5587296,27.1281392 L65.5587296,27.1281392 Z M55.9787493,5.37838739 C55.9062881,5.32093635 55.5983278,4.79782957 55.6134239,4.74642602 C55.7190966,4.89458921 55.891192,5.21208176 55.9787493,5.37838739 L55.9787493,5.37838739 Z M66.0236893,29.1449728 L66.1082274,29.6106286 C66.0689775,29.6892458 65.9723625,29.0724031 66.0236893,29.1449728 L66.0236893,29.1449728 Z M55.2571561,4.05701362 C55.2571561,4.10236969 55.3477327,4.2747228 55.3477327,4.32612635 C55.2299832,4.13260708 55.1514835,4.01165754 55.0095802,3.77882966 C55.0548685,3.80301957 55.1846949,4.02677623 55.2360216,4.05701362 L55.2571561,4.05701362 Z M44.8106602,3.5701917 C44.9284097,3.57321544 45.182024,3.53995431 45.2967543,3.51576441 C45.1186204,3.52785936 44.8710445,3.53390684 44.8106602,3.5701917 L44.8106602,3.5701917 Z M45.637926,3.4371472 C45.7798293,3.44319468 45.5292342,3.4915745 45.6832143,3.50669319 C44.8408523,3.59135787 44.4091041,3.63671395 43.5123962,3.72742611 C43.6090112,3.68207003 43.2859548,3.72137863 43.3825698,3.67602255 C44.1524705,3.59438161 44.9042559,3.51576441 45.637926,3.4371472 L45.637926,3.4371472 Z M55.960634,5.23929541 C55.9364803,5.26046158 55.7462695,4.93389781 55.6949428,4.82201948 C55.7553272,4.88551799 55.8459037,5.03972866 55.960634,5.23929541 L55.960634,5.23929541 Z M57.3494745,7.62502517 C57.3675899,7.62804891 57.6664925,8.14813195 57.5759159,8.04834857 C57.5125123,7.92437529 57.4702433,7.84878183 57.3494745,7.62502517 L57.3494745,7.62502517 Z M67.1468385,40.5353961 L67.1408001,40.9315059 C67.1136271,40.9133635 67.1106079,40.444684 67.1468385,40.5353961 L67.1468385,40.5353961 Z M65.6070371,26.783433 C65.2145387,25.4227506 65.1662312,25.2594687 65.0213087,24.7696231 C63.9796783,21.2530151 62.4700691,17.691051 60.7159032,14.2712026 C59.6682343,12.2150604 58.5541427,10.2345116 57.4008013,8.23884411 C56.8150729,7.24101037 56.2293445,6.24317663 55.6405969,5.23324793 C55.3477327,4.75247349 55.0095802,4.13865456 54.7921965,3.8362807 C54.5114092,3.51878814 54.6382163,3.58833413 54.2698717,3.49459824 C51.3895372,3.27084158 48.0231086,3.52181188 44.9374673,3.8362807 C41.8337107,4.1809869 38.5095512,4.59221535 35.2910643,4.35636374 C32.8877664,4.25658036 30.339546,3.77882966 28.1143819,3.3434113 C25.8227951,2.93823033 23.4829008,2.63283273 21.0886605,2.41814729 C21.9370609,2.39395738 23.5885734,2.58445292 25.0981827,2.79309088 C27.0274633,3.04406118 29.068455,3.40690982 30.3697381,3.73649732 C32.1540963,4.07213231 34.6691053,4.36543495 36.2723103,4.32007887 C39.004703,4.44102842 41.7854032,4.10236969 44.3547582,3.821162 C46.9663822,3.54297805 49.5447948,3.31619766 52.0869767,3.3192214 C52.7149742,3.3192214 53.3792022,3.33736383 53.9649306,3.36760121 C54.5748128,3.44017094 54.5597167,3.43412346 54.771062,3.6488089 C54.9824072,3.88163678 55.3416942,4.55290675 55.6677698,5.09415596 L56.6550543,6.77837836 C57.9593567,9.01594493 59.2244092,11.2444403 60.3868083,13.4880543 C62.5636649,17.691051 64.2574464,21.531199 65.4621146,26.0970443 C65.5164605,26.2814924 65.591941,26.5627 65.6070371,26.783433 L65.6070371,26.783433 Z M62.7810486,18.1355406 C62.7116066,18.0448284 62.5697033,17.6819798 62.4459153,17.4037958 C62.5123382,17.494508 62.6572606,17.8543329 62.7810486,18.1355406 L62.7810486,18.1355406 Z M59.3632933,11.1537281 C59.345178,11.190013 59.1096789,10.8029744 59.3270626,11.2232741 C58.1254137,9.12782326 57.3887244,7.84878183 56.20821,5.80171079 C56.3018057,5.89242295 56.4618243,6.19177307 56.4135168,6.01034875 C56.7003426,6.50019441 56.9871683,6.98399258 57.2800325,7.48593319 C57.3615514,7.67340499 57.1471869,7.30148514 57.2256866,7.48290945 C57.3796667,7.77318836 57.5094931,7.93647025 57.5849736,8.11487082 C57.6936654,8.27210523 57.5849736,8.05741979 57.6785694,8.19046429 L57.9533182,8.68030994 C57.8506648,8.54121797 57.8476456,8.54121797 57.9019915,8.68030994 C58.0499332,8.93732772 58.1918365,9.17922681 58.3548743,9.45438702 C58.3307205,9.19736924 59.2304477,10.7727371 59.3632933,11.1537281 L59.3632933,11.1537281 Z M67.1438193,42.3103307 C67.1347617,42.4070903 67.1287232,42.4826838 67.1226848,42.5401348 L67.0894734,42.5159449 C67.0804157,42.4070903 67.0955118,42.1349539 67.1075887,42.0442417 C67.1347617,42.041218 67.1317424,42.2135711 67.1438193,42.3103307 L67.1438193,42.3103307 Z M64.1608314,21.5584127 C64.1064855,21.4767717 63.9253324,20.9657599 63.8830633,20.8085255 C63.9525054,20.9173801 64.0974279,21.3527984 64.1608314,21.5584127 L64.1608314,21.5584127 Z M67.0472043,35.19245 C66.890205,34.0676193 66.7090518,32.404563 66.4222261,30.7475543 C66.1806886,29.3868719 65.7881902,27.8175516 65.6734599,27.0162608 C65.9693433,27.9233824 66.2350345,29.3808244 66.503745,30.8503614 C66.7573593,32.3138509 66.9807815,33.7410555 67.0472043,35.19245 L67.0472043,35.19245 Z M67.4608373,39.9246009 C67.4397027,39.900411 67.4457412,39.646417 67.4427219,39.4347553 C67.4638565,39.4589452 67.4668757,39.7129392 67.4608373,39.9246009 L67.4608373,39.9246009 Z M67.5272601,43.4805175 C67.5000871,43.8856985 67.4789526,44.2394759 67.4457412,44.6869892 C67.4940487,44.563016 67.5514138,43.5893721 67.5272601,43.4805175 L67.5272601,43.4805175 Z" id="Fill-1" fill="#231F20"></path>
                    <g id="Group-5" transform="translate(1.000000, 3.717949)">
                        <mask id="mask-2" fill="white">
                            <use xlink:href="#path-1"></use>
                        </mask>
                        <g id="Clip-4"></g>
                        <path d="M3.55649123,48.3023132 C3.9434278,49.6684012 5.05587045,52.0932833 5.89322537,53.3711384 C5.9385695,53.4380736 5.96879892,53.4715413 5.9748448,53.4563287 C5.06493927,51.9989654 4.0582996,49.6105934 3.55649123,48.3023132 M6.69430499,54.5820582 C6.82731444,54.782864 7.09031039,55.1723055 7.24145749,55.3396437 C7.30493927,55.3578987 6.72755735,54.551633 6.69430499,54.5820582 M17.9033738,130.367991 C18.0363833,130.441012 19.7775978,130.456224 19.9831579,130.398417 C19.3060189,130.355821 18.7104993,130.392332 17.9033738,130.367991 M20.6965722,130.434927 C20.9112011,130.474479 21.5762483,130.477522 21.6397301,130.431884 C21.3918489,130.404502 20.8205128,130.410587 20.6965722,130.434927 M17.5678273,0.401003092 C17.0448583,1.14033353 16.174251,2.06829971 15.3641026,3.15143401 C14.9378677,3.72646879 14.5630229,4.31367362 14.1821323,4.90087845 C13.5412686,5.8957799 12.9155196,6.89676638 12.3381377,7.9859857 C11.0352497,10.4382504 9.82909582,13.3164669 8.79222672,15.8447944 C7.23843455,19.6601045 5.87508772,23.3232891 4.9017004,27.1751094 C3.77112011,31.7175799 3.23605938,36.2357103 3.67136302,40.9090089 C4.02504723,44.6117461 4.89867746,48.2140804 6.82731444,51.7220968 C8.29646424,54.408635 10.4246154,56.7270292 12.8883131,58.5890466 C17.6282861,62.1548707 23.3779217,63.9104002 29.197085,64.4093722 C29.6505263,64.4763074 30.0616464,64.5219451 30.7176248,64.7257934 L31.022942,64.8444514 C31.1559514,64.9083442 31.3524426,65.0178746 31.4219703,65.0695973 C31.5700945,65.1700002 31.7121727,65.2734456 31.854251,65.4012311 C32.1353846,65.6507171 32.4014035,65.9610533 32.6009177,66.2926871 C33.3687449,67.7409229 33.2417814,68.6688891 33.3475843,69.4964524 C33.4080432,71.1850466 33.471525,72.8888533 33.5289609,74.5926601 C33.6166262,77.9759335 33.7073144,81.3257393 33.7889339,84.5629722 C33.8312551,85.7769345 33.8735762,87.1369374 33.9128745,88.3478572 C34.0337922,93.6813809 34.1577328,99.2796031 34.2756275,104.607042 C34.2907422,108.890899 34.3088799,113.156501 34.3270175,117.50425 C34.3119028,118.64215 34.3149258,119.618796 34.2151687,120.975757 C34.0549528,122.39661 33.8070715,123.288066 33.2961943,124.666324 C32.8034548,125.983732 31.6124157,127.337649 30.3669636,127.994832 C30.0525776,128.183468 29.771444,128.317338 29.4268286,128.472506 C29.0096626,128.642887 28.6680702,128.737205 28.3355466,128.81631 C27.6795682,128.977563 27.0840486,129.059711 26.4855061,129.138817 C23.4081511,129.528258 20.3912551,129.531301 17.4741161,129.589108 L13.1301484,129.665171 C12.4832389,129.689511 11.9512011,129.765574 11.6065857,129.911615 C11.2317409,130.072868 11.2105803,130.148931 11.068502,130.386247 C11.0019973,130.577925 11.0654791,130.52316 10.9747908,130.401459 L9.54796221,129.659086 C12.7069366,129.729064 15.8326586,129.792957 18.8918758,129.859892 C22.6373009,129.908572 26.3766802,129.957252 30.134197,130.005933 C31.905641,130.024188 33.7768421,130.045485 35.554332,130.06374 C39.2181377,130.11242 42.9061269,130.161101 46.7936302,130.215866 C48.5499595,130.246291 50.2246694,130.270631 51.9507692,130.301056 L52.117031,130.313226 L52.1502834,130.316269 C52.3558435,130.340609 52.694413,130.355821 52.9664777,130.352779 C53.4168961,130.361906 54.0849663,130.206738 54.151471,130.127633 C54.1605398,130.08808 54.0335762,130.231078 54.0003239,130.358864 C53.9731174,130.462309 54.0093927,130.471437 54.0063698,130.407544 C54.0819433,130.246291 54.100081,130.486649 54.2482051,130.441012 C54.2663428,130.495777 54.3328475,130.425799 54.3751687,130.410587 C54.4507422,130.49882 54.6230499,130.526202 54.5716599,130.675285 C54.7893117,130.587052 54.7802429,130.68137 54.8407018,130.815241 C54.8709312,130.891304 54.9978947,130.857836 55.037193,130.924771 C55.0946289,131.009962 55.0734683,131.171215 55.0099865,131.33551 C55.0039406,131.408531 54.7953576,131.539359 54.7923347,131.597166 C54.7318758,131.907503 55.7687449,131.445041 55.6750337,131.664102 C55.6508502,131.788845 55.1883401,132.184371 55.1671795,132.217839 C55.1581107,132.263477 55.5510931,132.117436 55.6236437,132.105266 C55.8443185,132.190456 54.9253441,132.908489 55.1702024,132.951084 C55.2276383,132.993679 55.6538731,132.802001 55.711309,132.808086 C55.9803509,132.802001 55.5934143,133.234038 54.8044265,133.526119 C54.0063698,133.809073 53.0087989,133.945986 51.702888,133.827328 L51.8963563,133.84254 C49.7198381,133.85471 46.7845614,133.772563 44.1818084,133.714755 C41.494413,133.681287 38.2447503,133.635649 35.0253171,133.593054 C34.0912281,133.586969 33.0906343,133.577842 32.2109582,133.568714 C29.8379487,133.535247 27.8125776,133.504821 25.968583,133.477439 C25.5393252,133.483524 24.7805668,133.495694 24.4903644,133.501779 C23.0212146,133.471354 21.1953576,133.434844 19.5115789,133.401376 C16.3465587,133.337483 12.9548178,133.273591 9.4965722,133.206655 L9.34844804,133.203613 C8.82850202,133.194485 8.37808367,132.911532 8.12717949,132.494707 C6.32550607,129.473493 8.88593792,126.872145 10.808529,126.440108 C12.8369231,125.935051 14.1821323,126.169325 15.6482591,126.078049 C18.5744669,126.020242 21.4220783,126.041539 24.0157625,125.834649 C25.60583,125.700778 27.4226181,125.539525 28.2750877,125.116616 C29.457058,124.538538 29.9165452,123.923951 30.3246424,122.548735 C30.39417,122.271867 30.4606748,122.016296 30.5271795,121.757682 L30.6148448,121.356071 L30.6601889,121.14918 L30.6813495,121.048777 L30.6934413,120.997054 L30.6994872,120.972714 L30.6994872,120.966629 L30.6994872,120.963587 L31.3252362,121.097457 L31.2345479,121.07616 L30.8929555,120.990969 C30.554386,120.911864 30.7569231,120.948374 30.6994872,120.930119 L30.6994872,120.908821 L30.7025101,120.872311 L30.7055331,120.790163 L30.7146019,120.62891 L30.7418084,120.303362 C30.7508772,120.008238 30.762969,119.707029 30.7750607,119.360183 C30.8294737,117.930202 30.7992443,116.415031 30.811336,114.915073 C30.7962213,112.444553 30.7841296,110.034883 30.7690148,107.512641 C30.7055331,103.682118 30.6511201,100.025019 30.5876383,96.3253239 C30.5271795,93.6935509 30.4576518,90.9522475 30.3911471,88.055776 C30.3367341,86.4280321 30.2823212,84.6481625 30.2279082,83.0204186 C30.1432659,79.6979954 30.0556005,76.1899789 29.9618893,72.6089422 L29.8621323,69.9893393 C29.8379487,69.1678611 29.6958704,68.1668746 29.6051822,68.1425345 C29.5840216,68.1090669 29.5749528,68.0908118 29.5326316,68.0573442 L29.4963563,68.0299615 L29.4842645,68.020834 L29.4812416,68.0177915 L29.4782186,68.014749 C29.3482321,68.2185973 30.6239136,66.2257519 30.0737382,67.0806978 C29.9951417,67.1932707 29.925614,67.3119287 29.8712011,67.4366717 C29.5144939,68.2794475 29.6233198,68.0725567 29.5507692,68.0695142 C29.3149798,68.0025789 28.8826991,67.9386862 28.4806478,67.8930485 C27.6765452,67.8230707 26.6275843,67.7013702 25.7448853,67.5553297 C21.6790283,66.9103171 17.5889879,65.5746543 14.0430769,63.5665963 C9.69910931,61.1599693 5.55163293,57.2746814 3.13932524,52.2301963 C0.524480432,46.8419074 -0.315897436,40.6564804 0.101268556,34.7022843 C0.651443995,26.1771654 4.23665317,17.3325828 7.34423752,10.2313596 C8.00626181,8.74357121 8.74990553,7.25274029 9.48448043,5.88665237 C10.1706883,4.59966976 11.0140891,3.01756348 12.0932794,1.70015575 C12.2837247,1.50543498 11.9693387,1.95876928 12.0146829,1.97093932 C12.0630499,1.9891944 12.4923077,1.50847749 12.5527665,1.53281758 C12.6102024,1.55411517 12.4499865,1.87053643 12.3865047,2.0652572 C12.3260459,2.2417229 12.3472065,2.32387072 12.1597841,2.66463208 C13.7135762,0.562256232 13.4022132,1.52977507 13.6259109,1.55715768 C13.6259109,1.636263 14.0188934,1.10078087 14.0551687,1.13120599 C13.828448,1.56628522 14.5660459,0.80869971 14.6597571,0.863464928 C14.6899865,0.878677488 14.5207018,1.13729101 14.5146559,1.22552386 C14.505587,1.38373449 14.8109042,1.12816348 14.2909582,1.8401113 C14.6567341,1.50543498 15.2310931,0.951697778 15.4699055,0.845209855 C15.5726856,0.805657198 15.5092038,0.957782802 15.602915,0.924315169 C15.7147638,0.878677488 16.0775169,0.525746087 16.2105263,0.455768309 C16.3949258,0.355365411 16.2407557,0.635276522 16.6307152,0.273217585 C16.3072605,0.823912271 17.2443725,0.102836908 17.4378408,0.0784968116 C17.6010796,0.0571992271 17.4136572,0.419258164 17.5678273,0.401003092" id="Fill-3" fill="#231F20" mask="url(#mask-2)"></path>
                    </g>
                    <path d="M62.1541109,34.8819585 C61.8012118,34.3075278 61.0528224,33.9920374 60.943302,33.2866484 C59.2213979,33.4414173 57.6516055,34.2688356 56.0787709,34.9623193 C52.4828511,36.5457241 48.6070458,37.5130297 44.6764803,37.7957805 C42.8815626,37.9237625 41.0592648,37.9118572 39.3130229,37.5011244 C38.1904388,37.2362314 37.1134882,36.810617 36.0213264,36.4475054 C34.2568311,35.8641457 32.44366,35.4385312 30.6335311,35.0158931 C27.1227938,34.1914511 23.6150988,33.3699855 20.1074037,32.5485198 C18.6775541,32.2121951 17.2385777,31.8758704 15.7752634,31.7687227 C13.8069385,31.6199065 10.3022856,31.7270542 8.70511314,33.0753293 C7.37565716,34.1914511 8.30658057,36.2808312 8.45565,37.7422067 C8.91806947,42.3495575 13.4646338,48.5195301 16.1904749,52.055404 C18.6455572,55.2460243 26.0327067,63.1364059 39.3130229,63.7093017 C47.5944219,64.0665506 60.943302,53.2843414 62.2149555,44.3079793 C62.5916825,41.6487348 63.3922999,40.3643489 62.7716842,36.6022743 C62.4400808,36.0933227 62.4705031,35.3968627 62.1541109,34.8819585 Z" id="Fill-6" fill="#EFD880"></path>
                </g>
            </g>
        </g>
    </g>
</svg>