<?xml version="1.0" encoding="UTF-8"?>
<svg width="18px" height="20px" viewBox="0 0 18 20" version="1.1" xmlns="http://www.w3.org/2000/svg" xmlns:xlink="http://www.w3.org/1999/xlink">
    <!-- Generator: Sketch 54.1 (76490) - https://sketchapp.com -->
    <title>icon—filter</title>
    <desc>Created with Sketch.</desc>
    <g id="Web:-Marketing-&amp;-Members-" stroke="none" stroke-width="1" fill="none" fill-rule="evenodd" stroke-linecap="round">
        <g id="desktop_wines" transform="translate(-31.000000, -119.000000)" stroke="#000000" stroke-width="1.5">
            <g id="Group-3" transform="translate(0.000000, 80.000000)">
                <g id="icon—filter" transform="translate(20.000000, 29.000000)">
                    <path d="M12,20 L23.3333333,20" id="Line-Copy-5"></path>
                    <path d="M23.3333333,18 L23.3333333,22" id="Line-Copy-4"></path>
                    <path d="M26,20 L28,20" id="Line-Copy-5"></path>
                    <path d="M17.3333333,13.3333333 L27.3333333,13.3333333" id="Line-Copy-5" transform="translate(22.666667, 12.982456) scale(-1, 1) translate(-22.666667, -12.982456) "></path>
                    <path d="M15.3333333,11.3333333 L15.3333333,15.3333333" id="Line-Copy-4" transform="translate(15.333333, 13.333333) scale(-1, 1) translate(-15.333333, -13.333333) "></path>
                    <path d="M11.6666667,13.3333333 L14.6666667,13.3333333" id="Line-Copy-5" transform="translate(13.333333, 12.982456) scale(-1, 1) translate(-13.333333, -12.982456) "></path>
                    <path d="M20,26.6666667 L27.3333333,26.6666667" id="Line-Copy-5" transform="translate(24.000000, 26.315789) scale(-1, 1) translate(-24.000000, -26.315789) "></path>
                    <path d="M18,24.6666667 L18,28.6666667" id="Line-Copy-4" transform="translate(18.000000, 26.666667) scale(-1, 1) translate(-18.000000, -26.666667) "></path>
                    <path d="M12.6666667,26.6666667 L18.6666667,26.6666667" id="Line-Copy-5" transform="translate(15.333333, 26.315789) scale(-1, 1) translate(-15.333333, -26.315789) "></path>
                </g>
            </g>
        </g>
    </g>
</svg>