<?xml version="1.0" encoding="utf-8"?>
<!-- Generator: Adobe Illustrator 23.0.1, SVG Export Plug-In . SVG Version: 6.00 Build 0)  -->
<svg version="1.1" id="Слой_1" xmlns="http://www.w3.org/2000/svg" xmlns:xlink="http://www.w3.org/1999/xlink" x="0px" y="0px"
	 viewBox="0 0 25 27" style="enable-background:new 0 0 25 27;" xml:space="preserve">
<style type="text/css">
	.st0{fill:#4285F4;}
	.st1{fill:#34A853;}
	.st2{fill:#FBBC05;}
	.st3{fill:#EB4335;}
</style>
<title>google-icon</title>
<desc>Created with Sketch.</desc>
<g>
	<g id="desktop_quiz_end_4" transform="translate(-862.000000, -1029.000000)">
		<g id="Group-6" transform="translate(422.000000, 671.000000)">
			<g id="Group-11-Copy" transform="translate(249.000000, 299.000000)">
				<g id="Group-2" transform="translate(173.000000, 42.000000)">
					<g id="google-icon" transform="translate(18.000000, 17.000000)">
						<path id="Path" class="st0" d="M25,13.7c0-1-0.1-1.8-0.3-2.6h-12v4.7h7c-0.1,1.2-0.9,2.9-2.6,4.1l0,0.2l3.8,2.9l0.3,0
							C23.6,20.9,25,17.6,25,13.7"/>
						<path class="st1" d="M12.7,26.2c3.5,0,6.3-1.1,8.5-3.1l-4-3.1c-1.1,0.8-2.5,1.3-4.4,1.3c-3.4,0-6.2-2.2-7.3-5.3l-0.1,0l-3.9,3
							l-0.1,0.1C3.4,23.3,7.7,26.2,12.7,26.2"/>
						<path class="st2" d="M5.6,15.9c-0.3-0.8-0.4-1.6-0.4-2.5c0-0.9,0.2-1.7,0.4-2.5l0-0.2l-4-3.1L1.4,7.7C0.5,9.4,0,11.4,0,13.4
							s0.5,4,1.4,5.7L5.6,15.9"/>
						<path class="st3" d="M12.7,5.5c2.4,0,4,1,4.9,1.9l3.6-3.5c-2.2-2.1-5.1-3.3-8.5-3.3c-5,0-9.3,2.9-11.4,7l4.1,3.2
							C6.5,7.7,9.3,5.5,12.7,5.5"/>
					</g>
				</g>
			</g>
		</g>
	</g>
</g>
</svg>
