<?xml version="1.0" encoding="UTF-8"?>
<svg width="24px" height="23px" viewBox="0 0 24 23" version="1.1" xmlns="http://www.w3.org/2000/svg" xmlns:xlink="http://www.w3.org/1999/xlink">
    <!-- Generator: Sketch 54.1 (76490) - https://sketchapp.com -->
    <title>Group</title>
    <desc>Created with Sketch.</desc>
    <defs>
        <polygon id="path-1" points="0.957085714 0.464 23.2422857 0.464 23.2422857 22.7497143 0.957085714 22.7497143"></polygon>
    </defs>
    <g id="Symbols-&amp;-Palette" stroke="none" stroke-width="1" fill="none" fill-rule="evenodd">
        <g id="footer_desktop" transform="translate(-1344.000000, -150.000000)">
            <g id="Group-10" transform="translate(1276.000000, 150.000000)">
                <g id="Group" transform="translate(68.000000, 0.000000)">
                    <path d="M12,8 C9.79052823,8 8,9.79012065 8,11.9990895 C8,14.2080583 9.79052823,16 12,16 C14.2094718,16 16,14.2080583 16,11.9990895 C16,9.79012065 14.2094718,8 12,8" id="Fill-1" fill="#000000"></path>
                    <g id="Group-5">
                        <mask id="mask-2" fill="white">
                            <use xlink:href="#path-1"></use>
                        </mask>
                        <g id="Clip-4"></g>
                        <path d="M18.4719429,6.48285714 C17.6748,6.48285714 17.0302286,5.83657143 17.0302286,5.04114286 C17.0302286,4.244 17.6748,3.59771429 18.4719429,3.59771429 C19.2673714,3.59771429 19.9136571,4.244 19.9136571,5.04114286 C19.9136571,5.83657143 19.2673714,6.48285714 18.4719429,6.48285714 M12.0588,17.8622857 C8.76051429,17.8622857 6.08622857,15.188 6.08622857,11.8897143 C6.08622857,8.59142857 8.76051429,5.91885714 12.0588,5.91885714 C15.3570857,5.91885714 18.0313714,8.59142857 18.0313714,11.8897143 C18.0313714,15.188 15.3570857,17.8622857 12.0588,17.8622857 M23.1759429,7.01428571 C23.1210857,5.82628571 22.9342286,5.01714286 22.6565143,4.30742857 C22.3719429,3.57542857 21.9913714,2.95314286 21.3725143,2.33428571 C20.7536571,1.71542857 20.1313714,1.33314286 19.3993714,1.04857143 C18.6896571,0.774285714 17.8805143,0.585714286 16.6942286,0.530857143 C15.5062286,0.476 15.1256571,0.464 12.0999429,0.464 C9.07422857,0.464 8.69365714,0.476 7.50565714,0.530857143 C6.31937143,0.585714286 5.50851429,0.774285714 4.80051429,1.04857143 C4.06851429,1.33314286 3.44622857,1.71542857 2.82737143,2.33428571 C2.2068,2.95314286 1.82622857,3.57542857 1.54165714,4.30742857 C1.26565714,5.01714286 1.0788,5.82628571 1.02394286,7.01428571 C0.969085714,8.20228571 0.957085714,8.58114286 0.957085714,11.6068571 C0.957085714,14.6342857 0.969085714,15.0131429 1.02394286,16.2011429 C1.0788,17.3874286 1.26565714,18.1982857 1.54165714,18.9062857 C1.82622857,19.64 2.2068,20.2605714 2.82737143,20.8794286 C3.44622857,21.5 4.06851429,21.8788571 4.80051429,22.1651429 C5.50851429,22.4411429 6.31937143,22.6297143 7.50565714,22.6828571 C8.69365714,22.736 9.07422857,22.7497143 12.0999429,22.7497143 C15.1256571,22.7497143 15.5062286,22.736 16.6942286,22.6828571 C17.8805143,22.6297143 18.6896571,22.4411429 19.3993714,22.1651429 C20.1313714,21.8788571 20.7536571,21.5 21.3725143,20.8794286 C21.9913714,20.2605714 22.3719429,19.64 22.6565143,18.9062857 C22.9342286,18.1982857 23.1210857,17.3874286 23.1759429,16.2011429 C23.2290857,15.0131429 23.2428,14.6342857 23.2428,11.6068571 C23.2428,8.58114286 23.2290857,8.20228571 23.1759429,7.01428571" id="Fill-3" fill="#000000" mask="url(#mask-2)"></path>
                    </g>
                </g>
            </g>
        </g>
    </g>
</svg>