<?xml version="1.0" encoding="UTF-8"?>
<svg width="22px" height="22px" viewBox="0 0 22 22" version="1.1" xmlns="http://www.w3.org/2000/svg" xmlns:xlink="http://www.w3.org/1999/xlink">
    <!-- Generator: Sketch 54.1 (76490) - https://sketchapp.com -->
    <title>smiley-indifferent 2</title>
    <desc>Created with Sketch.</desc>
    <g id="Symbols-&amp;-Palette" stroke="none" stroke-width="1" fill="none" fill-rule="evenodd" stroke-linecap="round" stroke-linejoin="round">
        <g id="disinterest_off" transform="translate(1.000000, 1.000000)" stroke="#000000" stroke-width="1.5">
            <g id="smiley-indifferent-2">
                <g id="smiley-indifferent">
                    <circle id="Oval" cx="10" cy="10" r="9.375"></circle>
                    <path d="M6.875,7.1875 C7.04758898,7.1875 7.1875,7.32741102 7.1875,7.5 C7.1875,7.67258898 7.04758898,7.8125 6.875,7.8125 C6.70241102,7.8125 6.5625,7.67258898 6.5625,7.5 C6.5625,7.32741102 6.70241102,7.1875 6.875,7.1875" id="Shape"></path>
                    <path d="M13.125,7.1875 C13.297589,7.1875 13.4375,7.32741102 13.4375,7.5 C13.4375,7.67258898 13.297589,7.8125 13.125,7.8125 C12.952411,7.8125 12.8125,7.67258898 12.8125,7.5 C12.8125,7.32741102 12.952411,7.1875 13.125,7.1875" id="Shape"></path>
                    <path d="M6.25,13.125 L13.75,13.125" id="Shape"></path>
                </g>
            </g>
        </g>
    </g>
</svg>