<?xml version="1.0" encoding="UTF-8"?>
<svg width="30px" height="23px" viewBox="0 0 30 23" version="1.1" xmlns="http://www.w3.org/2000/svg" xmlns:xlink="http://www.w3.org/1999/xlink">
    <!-- Generator: Sketch 54.1 (76490) - https://sketchapp.com -->
    <title>Fill 8</title>
    <desc>Created with Sketch.</desc>
    <g id="Symbols-&amp;-Palette" stroke="none" stroke-width="1" fill="none" fill-rule="evenodd">
        <g id="footer_desktop" transform="translate(-1276.000000, -150.000000)" fill="#000000">
            <g id="Group-10" transform="translate(1276.000000, 150.000000)">
                <path d="M12.6405882,17.1190769 L12.6405882,6.18876923 L21.1464706,11.6539231 L12.6405882,17.1190769 Z M29.3982353,3.96661538 C29.1052941,3.21115385 28.7117647,2.56892308 28.0747059,1.93023077 C27.4376471,1.29153846 26.7970588,0.897 26.0435294,0.603307692 C25.3147059,0.320230769 24.48,0.125615385 23.2588235,0.069 C22.0358824,0.0123846154 18.1164706,0 15,0 C11.8852941,0 7.96588235,0.0123846154 6.74117647,0.069 C5.52,0.125615385 4.68705882,0.320230769 3.95647059,0.603307692 C3.20294118,0.897 2.56235294,1.29153846 1.92529412,1.93023077 C1.28647059,2.56892308 0.894705882,3.21115385 0.601764706,3.96661538 C0.319411765,4.69730769 0.125294118,5.53415385 0.0688235294,6.76023077 C0.0123529412,7.98630769 0,8.37730769 0,11.5 C0,14.6244615 0.0123529412,15.0154615 0.0688235294,16.2415385 C0.125294118,17.4658462 0.319411765,18.3026923 0.601764706,19.0333846 C0.894705882,19.7906154 1.28647059,20.4310769 1.92529412,21.0697692 C2.56235294,21.7102308 3.20294118,22.1012308 3.95647059,22.3966923 C4.68705882,22.6815385 5.52,22.8761538 6.74117647,22.931 C7.96588235,22.9858462 11.8852941,23 15,23 C18.1164706,23 22.0358824,22.9858462 23.2588235,22.931 C24.48,22.8761538 25.3147059,22.6815385 26.0435294,22.3966923 C26.7970588,22.1012308 27.4376471,21.7102308 28.0747059,21.0697692 C28.7117647,20.4310769 29.1052941,19.7906154 29.3982353,19.0333846 C29.6823529,18.3026923 29.8764706,17.4658462 29.9311765,16.2415385 C29.9876471,15.0154615 30,14.6244615 30,11.5 C30,8.37730769 29.9876471,7.98630769 29.9311765,6.76023077 C29.8764706,5.53415385 29.6823529,4.69730769 29.3982353,3.96661538 L29.3982353,3.96661538 Z" id="Fill-8"></path>
            </g>
        </g>
    </g>
</svg>